<?xml version="1.0" standalone="no"?>
 <!DOCTYPE svg PUBLIC "-//W3C//DTD SVG 1.1//EN" 
 "http://www.w3.org/Graphics/SVG/1.1/DTD/svg11.dtd"> 
<svg
  xmlns:svg="http://www.w3.org/2000/svg"
  xmlns="http://www.w3.org/2000/svg"
  xmlns:xlink="http://www.w3.org/1999/xlink"
  version="1.1"
  width="38.0238mm" height="76.0476mm" viewBox="0.0000 0.0000 38.0238 76.0476">
<title>SVG Image created as pcb-routed.svg date 2026/09/06 02:25:48 </title>
  <desc>Image generated by PCBNEW </desc>
<g style="fill:#000000; fill-opacity:1.0000;stroke:#000000; stroke-opacity:1.0000;
stroke-linecap:round; stroke-linejoin:round;"
 transform="translate(0 0) scale(1 1)">
<path style="fill:#C83434; fill-opacity:1.0000; stroke:none;fill-rule:evenodd;"
d="M 6.7333,10.8750
6.7333,9.1750
8.4333,9.1750
8.4333,10.8750
Z" /> 
</g>
<g style="fill:#C83434; fill-opacity:1.0000; stroke:none;">
<circle cx="7.5833" cy="12.5650" r="0.8500" /> 
</g>
<g style="fill:#C83434; fill-opacity:1.0000; stroke:none;">
<circle cx="7.5833" cy="15.1050" r="0.8500" /> 
</g>
<g style="fill:#C83434; fill-opacity:1.0000; stroke:none;">
<circle cx="7.5833" cy="17.6450" r="0.8500" /> 
</g>
<g style="fill:#C83434; fill-opacity:1.0000; stroke:none;">
<circle cx="7.5833" cy="20.1850" r="0.8500" /> 
</g>
<g style="fill:#C83434; fill-opacity:1.0000; stroke:none;">
<circle cx="7.5833" cy="22.7250" r="0.8500" /> 
</g>
<g style="fill:#C83434; fill-opacity:1.0000; stroke:none;">
<circle cx="7.5833" cy="25.2650" r="0.8500" /> 
</g>
<g style="fill:#C83434; fill-opacity:1.0000; stroke:none;">
<circle cx="7.5833" cy="27.8050" r="0.8500" /> 
</g>
<g style="fill:#C83434; fill-opacity:1.0000; stroke:none;">
<circle cx="7.5833" cy="30.3450" r="0.8500" /> 
</g>
<g style="fill:#C83434; fill-opacity:1.0000; stroke:none;">
<circle cx="7.5833" cy="32.8850" r="0.8500" /> 
</g>
<g style="fill:#C83434; fill-opacity:1.0000; stroke:none;">
<circle cx="7.5833" cy="35.4250" r="0.8500" /> 
</g>
<g style="fill:#C83434; fill-opacity:1.0000; stroke:none;">
<circle cx="7.5833" cy="37.9650" r="0.8500" /> 
</g>
<g style="fill:#C83434; fill-opacity:1.0000; stroke:none;">
<circle cx="7.5833" cy="40.5050" r="0.8500" /> 
</g>
<g style="fill:#C83434; fill-opacity:1.0000; stroke:none;">
<circle cx="7.5833" cy="43.0450" r="0.8500" /> 
</g>
<g style="fill:#C83434; fill-opacity:1.0000; stroke:none;">
<circle cx="7.5833" cy="45.5850" r="0.8500" /> 
</g>
<g style="fill:#C83434; fill-opacity:1.0000; stroke:none;">
<circle cx="7.5833" cy="48.1250" r="0.8500" /> 
</g>
<g style="fill:#C83434; fill-opacity:1.0000; stroke:none;">
<circle cx="7.5833" cy="50.6650" r="0.8500" /> 
</g>
<g style="fill:#C83434; fill-opacity:1.0000; stroke:none;">
<circle cx="7.5833" cy="53.2050" r="0.8500" /> 
</g>
<g style="fill:#C83434; fill-opacity:1.0000; stroke:none;">
<circle cx="7.5833" cy="55.7450" r="0.8500" /> 
</g>
<g style="fill:#C83434; fill-opacity:1.0000; stroke:none;">
<circle cx="7.5833" cy="58.2850" r="0.8500" /> 
</g>
<g style="fill:#C83434; fill-opacity:1.0000; stroke:none;">
<circle cx="7.5833" cy="60.8250" r="0.8500" /> 
</g>
<g style="fill:#C83434; fill-opacity:1.0000; stroke:none;">
<circle cx="7.5833" cy="63.3650" r="0.8500" /> 
<path style="fill:#C83434; fill-opacity:1.0000; stroke:none;fill-rule:evenodd;"
d="M 29.5933,10.8750
29.5933,9.1750
31.2933,9.1750
31.2933,10.8750
Z" /> 
</g>
<g style="fill:#C83434; fill-opacity:1.0000; stroke:none;">
<circle cx="30.4433" cy="12.5650" r="0.8500" /> 
</g>
<g style="fill:#C83434; fill-opacity:1.0000; stroke:none;">
<circle cx="30.4433" cy="15.1050" r="0.8500" /> 
</g>
<g style="fill:#C83434; fill-opacity:1.0000; stroke:none;">
<circle cx="30.4433" cy="17.6450" r="0.8500" /> 
</g>
<g style="fill:#C83434; fill-opacity:1.0000; stroke:none;">
<circle cx="30.4433" cy="20.1850" r="0.8500" /> 
</g>
<g style="fill:#C83434; fill-opacity:1.0000; stroke:none;">
<circle cx="30.4433" cy="22.7250" r="0.8500" /> 
</g>
<g style="fill:#C83434; fill-opacity:1.0000; stroke:none;">
<circle cx="30.4433" cy="25.2650" r="0.8500" /> 
</g>
<g style="fill:#C83434; fill-opacity:1.0000; stroke:none;">
<circle cx="30.4433" cy="27.8050" r="0.8500" /> 
</g>
<g style="fill:#C83434; fill-opacity:1.0000; stroke:none;">
<circle cx="30.4433" cy="30.3450" r="0.8500" /> 
</g>
<g style="fill:#C83434; fill-opacity:1.0000; stroke:none;">
<circle cx="30.4433" cy="32.8850" r="0.8500" /> 
</g>
<g style="fill:#C83434; fill-opacity:1.0000; stroke:none;">
<circle cx="30.4433" cy="35.4250" r="0.8500" /> 
</g>
<g style="fill:#C83434; fill-opacity:1.0000; stroke:none;">
<circle cx="30.4433" cy="37.9650" r="0.8500" /> 
</g>
<g style="fill:#C83434; fill-opacity:1.0000; stroke:none;">
<circle cx="30.4433" cy="40.5050" r="0.8500" /> 
</g>
<g style="fill:#C83434; fill-opacity:1.0000; stroke:none;">
<circle cx="30.4433" cy="43.0450" r="0.8500" /> 
</g>
<g style="fill:#C83434; fill-opacity:1.0000; stroke:none;">
<circle cx="30.4433" cy="45.5850" r="0.8500" /> 
</g>
<g style="fill:#C83434; fill-opacity:1.0000; stroke:none;">
<circle cx="30.4433" cy="48.1250" r="0.8500" /> 
</g>
<g style="fill:#C83434; fill-opacity:1.0000; stroke:none;">
<circle cx="30.4433" cy="50.6650" r="0.8500" /> 
</g>
<g style="fill:#C83434; fill-opacity:1.0000; stroke:none;">
<circle cx="30.4433" cy="53.2050" r="0.8500" /> 
</g>
<g style="fill:#C83434; fill-opacity:1.0000; stroke:none;">
<circle cx="30.4433" cy="55.7450" r="0.8500" /> 
</g>
<g style="fill:#C83434; fill-opacity:1.0000; stroke:none;">
<circle cx="30.4433" cy="58.2850" r="0.8500" /> 
</g>
<g style="fill:#C83434; fill-opacity:1.0000; stroke:none;">
<circle cx="30.4433" cy="60.8250" r="0.8500" /> 
</g>
<g style="fill:#C83434; fill-opacity:1.0000; stroke:none;">
<circle cx="30.4433" cy="63.3650" r="0.8500" /> 
<path style="fill:#C83434; fill-opacity:1.0000; stroke:none;fill-rule:evenodd;"
d="M 12.1633,58.8750
12.1633,57.1750
13.8633,57.1750
13.8633,58.8750
Z" /> 
</g>
<g style="fill:#C83434; fill-opacity:1.0000; stroke:none;">
<circle cx="15.5533" cy="58.0250" r="0.8500" /> 
</g>
<g style="fill:#C83434; fill-opacity:1.0000; stroke:none;">
<circle cx="18.0933" cy="58.0250" r="0.8500" /> 
</g>
<g style="fill:#C83434; fill-opacity:1.0000; stroke:none;">
<circle cx="20.6333" cy="58.0250" r="0.8500" /> 
<path style="fill:#C83434; fill-opacity:1.0000; stroke:none;fill-rule:evenodd;"
d="M 11.1633,66.3750
11.1633,64.6750
12.8633,64.6750
12.8633,66.3750
Z" /> 
</g>
<g style="fill:#C83434; fill-opacity:1.0000; stroke:none;">
<circle cx="14.5533" cy="65.5250" r="0.8500" /> 
</g>
<g style="fill:#C83434; fill-opacity:1.0000; stroke:none;">
<circle cx="17.0933" cy="65.5250" r="0.8500" /> 
</g>
<g style="fill:#C83434; fill-opacity:1.0000; stroke:none;">
<circle cx="19.6333" cy="65.5250" r="0.8500" /> 
<path style="fill:#C83434; fill-opacity:1.0000; stroke:none;fill-rule:evenodd;"
d="M 23.1633,55.8750
23.1633,54.1750
24.8633,54.1750
24.8633,55.8750
Z" /> 
</g>
<g style="fill:#C83434; fill-opacity:1.0000; stroke:none;">
<circle cx="26.5533" cy="55.0250" r="0.8500" /> 
<path style="fill:#C83434; fill-opacity:1.0000; stroke:none;fill-rule:evenodd;"
d="M 10.1633,71.8750
10.1633,70.1750
11.8633,70.1750
11.8633,71.8750
Z" /> 
</g>
<g style="fill:#C83434; fill-opacity:1.0000; stroke:none;">
<circle cx="13.5533" cy="71.0250" r="0.8500" /> 
</g>
<g style="fill:#C83434; fill-opacity:1.0000; stroke:none;">
<circle cx="16.0933" cy="71.0250" r="0.8500" /> 
</g>
<g style="fill:#C83434; fill-opacity:1.0000; stroke:none;">
<circle cx="18.6333" cy="71.0250" r="0.8500" /> 
</g>
<g style="fill:#C83434; fill-opacity:1.0000; stroke:none;">
<circle cx="21.1733" cy="71.0250" r="0.8500" /> 
</g>
<g style="fill:#C83434; fill-opacity:1.0000; stroke:none;">
<circle cx="23.7133" cy="71.0250" r="0.8500" /> 
</g>
<g style="fill:#C83434; fill-opacity:1.0000; stroke:none;">
<circle cx="16.0133" cy="26.4250" r="0.3250" /> 
</g>
<g style="fill:#C83434; fill-opacity:1.0000; stroke:none;">
<circle cx="14.0133" cy="28.0250" r="0.3250" /> 
</g>
<g style="fill:#C83434; fill-opacity:1.0000; stroke:none;">
<circle cx="14.0133" cy="23.0250" r="0.3250" /> 
</g>
<g style="fill:#C83434; fill-opacity:1.0000; stroke:none;">
<circle cx="14.0133" cy="33.0250" r="0.3250" /> 
</g>
<g style="fill:#C83434; fill-opacity:1.0000; stroke:none;">
<circle cx="15.2133" cy="29.4250" r="0.3250" /> 
</g>
<g style="fill:#C83434; fill-opacity:1.0000; stroke:none;">
<circle cx="23.0133" cy="50.0250" r="0.3250" /> 
</g>
<g style="fill:#C83434; fill-opacity:1.0000; stroke:none;">
<circle cx="15.2133" cy="48.0250" r="0.3250" /> 
</g>
<g style="fill:#C83434; fill-opacity:1.0000; stroke:none;">
<circle cx="11.8133" cy="27.2250" r="0.3250" /> 
</g>
<g style="fill:#C83434; fill-opacity:1.0000; stroke:none;">
<circle cx="20.0133" cy="44.0250" r="0.3250" /> 
</g>
<g style="fill:#C83434; fill-opacity:1.0000; stroke:none;">
<circle cx="18.2133" cy="50.8250" r="0.3250" /> 
</g>
<g style="fill:#C83434; fill-opacity:1.0000; stroke:none;">
<circle cx="10.8133" cy="27.2250" r="0.3250" /> 
</g>
<g style="fill:#C83434; fill-opacity:1.0000; stroke:none;">
<circle cx="20.0133" cy="39.0250" r="0.3250" /> 
</g>
<g style="fill:#C83434; fill-opacity:1.0000; stroke:none;">
<circle cx="11.8133" cy="49.0250" r="0.3250" /> 
</g>
<g style="fill:#C83434; fill-opacity:1.0000; stroke:none;">
<circle cx="14.0133" cy="49.0250" r="0.3250" /> 
</g>
<g style="fill:#C83434; fill-opacity:1.0000; stroke:none;">
<circle cx="13.6133" cy="56.2250" r="0.3250" /> 
</g>
<g style="fill:#C83434; fill-opacity:1.0000; stroke:none;">
<circle cx="17.6133" cy="44.8250" r="0.3250" /> 
</g>
<g style="fill:#C83434; fill-opacity:1.0000; stroke:none;">
<circle cx="15.8133" cy="67.6250" r="0.3250" /> 
</g>
<g style="fill:none; 
stroke:#C83434; stroke-width:0.2500; stroke-opacity:1; 
stroke-linecap:round; stroke-linejoin:round;">
<path d="M16.0133 26.4250
L16.0133 56.8250
" />
<path d="M16.0133 56.8250
L16.2133 56.8250
" />
<path d="M16.2133 56.8250
L16.2133 57.0250
" />
<path d="M16.2133 57.0250
L16.6133 57.0250
" />
<path d="M16.6133 57.0250
L16.6133 57.4250
" />
<path d="M16.6133 57.4250
L16.8133 57.4250
" />
<path d="M16.8133 57.4250
L16.8133 65.6250
" />
<path d="M16.8133 65.6250
L17.0133 65.6250
" />
<path d="M17.0133 65.6250
L17.0933 65.5250
" />
<path d="M7.5833 22.7250
L7.6133 22.6250
" />
<path d="M7.6133 22.6250
L7.6133 24.0250
" />
<path d="M7.6133 24.0250
L8.2133 24.0250
" />
<path d="M8.2133 24.0250
L8.2133 24.2250
" />
<path d="M8.2133 24.2250
L8.6133 24.2250
" />
<path d="M8.6133 24.2250
L8.6133 24.6250
" />
<path d="M8.6133 24.6250
L8.8133 24.6250
" />
<path d="M8.8133 24.6250
L8.8133 28.0250
" />
<path d="M8.8133 28.0250
L14.0133 28.0250
" />
<path d="M7.5833 20.1850
L7.6133 20.2250
" />
<path d="M7.6133 20.2250
L7.6133 21.4250
" />
<path d="M7.6133 21.4250
L8.2133 21.4250
" />
<path d="M8.2133 21.4250
L8.2133 21.6250
" />
<path d="M8.2133 21.6250
L8.4133 21.6250
" />
<path d="M8.4133 21.6250
L8.4133 21.8250
" />
<path d="M8.4133 21.8250
L8.6133 21.8250
" />
<path d="M8.6133 21.8250
L8.6133 22.0250
" />
<path d="M8.6133 22.0250
L8.8133 22.0250
" />
<path d="M8.8133 22.0250
L8.8133 23.0250
" />
<path d="M8.8133 23.0250
L14.0133 23.0250
" />
<path d="M7.5833 25.2650
L7.6133 25.2250
" />
<path d="M7.6133 25.2250
L7.6133 26.4250
" />
<path d="M7.6133 26.4250
L7.2133 26.4250
" />
<path d="M7.2133 26.4250
L7.2133 26.6250
" />
<path d="M7.2133 26.6250
L6.8133 26.6250
" />
<path d="M6.8133 26.6250
L6.8133 26.8250
" />
<path d="M6.8133 26.8250
L6.6133 26.8250
" />
<path d="M6.6133 26.8250
L6.6133 27.0250
" />
<path d="M6.6133 27.0250
L6.4133 27.0250
" />
<path d="M6.4133 27.0250
L6.4133 27.4250
" />
<path d="M6.4133 27.4250
L6.2133 27.4250
" />
<path d="M6.2133 27.4250
L6.2133 31.6250
" />
<path d="M6.2133 31.6250
L8.2133 31.6250
" />
<path d="M8.2133 31.6250
L8.2133 31.8250
" />
<path d="M8.2133 31.8250
L8.4133 31.8250
" />
<path d="M8.4133 31.8250
L8.4133 32.0250
" />
<path d="M8.4133 32.0250
L8.6133 32.0250
" />
<path d="M8.6133 32.0250
L8.6133 32.2250
" />
<path d="M8.6133 32.2250
L8.8133 32.2250
" />
<path d="M8.8133 32.2250
L8.8133 33.0250
" />
<path d="M8.8133 33.0250
L14.0133 33.0250
" />
<path d="M15.2133 29.4250
L15.2133 26.0250
" />
<path d="M15.2133 26.0250
L15.4133 26.0250
" />
<path d="M15.4133 26.0250
L15.4133 25.8250
" />
<path d="M15.4133 25.8250
L15.6133 25.8250
" />
<path d="M15.6133 25.8250
L15.6133 25.6250
" />
<path d="M15.6133 25.6250
L16.4133 25.6250
" />
<path d="M16.4133 25.6250
L16.4133 25.8250
" />
<path d="M16.4133 25.8250
L16.6133 25.8250
" />
<path d="M16.6133 25.8250
L16.6133 26.0250
" />
<path d="M16.6133 26.0250
L16.8133 26.0250
" />
<path d="M16.8133 26.0250
L16.8133 50.0250
" />
<path d="M16.8133 50.0250
L23.0133 50.0250
" />
<path d="M7.5833 48.1250
L7.6133 48.0250
" />
<path d="M7.6133 48.0250
L15.2133 48.0250
" />
<path d="M11.8133 27.2250
L14.6133 27.2250
" />
<path d="M14.6133 27.2250
L14.6133 25.6250
" />
<path d="M14.6133 25.6250
L14.8133 25.6250
" />
<path d="M14.8133 25.6250
L14.8133 25.4250
" />
<path d="M14.8133 25.4250
L15.0133 25.4250
" />
<path d="M15.0133 25.4250
L15.0133 25.2250
" />
<path d="M15.0133 25.2250
L15.2133 25.2250
" />
<path d="M15.2133 25.2250
L15.2133 25.0250
" />
<path d="M15.2133 25.0250
L16.8133 25.0250
" />
<path d="M16.8133 25.0250
L16.8133 25.2250
" />
<path d="M16.8133 25.2250
L17.0133 25.2250
" />
<path d="M17.0133 25.2250
L17.0133 25.4250
" />
<path d="M17.0133 25.4250
L17.2133 25.4250
" />
<path d="M17.2133 25.4250
L17.2133 25.6250
" />
<path d="M17.2133 25.6250
L17.4133 25.6250
" />
<path d="M17.4133 25.6250
L17.4133 44.0250
" />
<path d="M17.4133 44.0250
L20.0133 44.0250
" />
<path d="M18.2133 50.8250
L18.0133 50.8250
" />
<path d="M18.0133 50.8250
L18.0133 58.0250
" />
<path d="M18.0133 58.0250
L18.0933 58.0250
" />
<path d="M10.8133 27.2250
L11.0133 27.2250
" />
<path d="M11.0133 27.2250
L11.0133 26.8250
" />
<path d="M11.0133 26.8250
L11.2133 26.8250
" />
<path d="M11.2133 26.8250
L11.2133 26.6250
" />
<path d="M11.2133 26.6250
L11.4133 26.6250
" />
<path d="M11.4133 26.6250
L11.4133 26.4250
" />
<path d="M11.4133 26.4250
L14.0133 26.4250
" />
<path d="M14.0133 26.4250
L14.0133 25.2250
" />
<path d="M14.0133 25.2250
L14.2133 25.2250
" />
<path d="M14.2133 25.2250
L14.2133 25.0250
" />
<path d="M14.2133 25.0250
L14.4133 25.0250
" />
<path d="M14.4133 25.0250
L14.4133 24.8250
" />
<path d="M14.4133 24.8250
L14.6133 24.8250
" />
<path d="M14.6133 24.8250
L14.6133 24.6250
" />
<path d="M14.6133 24.6250
L14.8133 24.6250
" />
<path d="M14.8133 24.6250
L14.8133 24.4250
" />
<path d="M14.8133 24.4250
L17.2133 24.4250
" />
<path d="M17.2133 24.4250
L17.2133 24.6250
" />
<path d="M17.2133 24.6250
L17.4133 24.6250
" />
<path d="M17.4133 24.6250
L17.4133 24.8250
" />
<path d="M17.4133 24.8250
L17.6133 24.8250
" />
<path d="M17.6133 24.8250
L17.6133 25.0250
" />
<path d="M17.6133 25.0250
L17.8133 25.0250
" />
<path d="M17.8133 25.0250
L17.8133 25.2250
" />
<path d="M17.8133 25.2250
L18.0133 25.2250
" />
<path d="M18.0133 25.2250
L18.0133 39.0250
" />
<path d="M18.0133 39.0250
L20.0133 39.0250
" />
<path d="M7.5833 10.0250
L7.6133 10.0250
" />
<path d="M7.6133 10.0250
L7.6133 12.6250
" />
<path d="M7.6133 12.6250
L7.5833 12.5650
" />
<path d="M11.8133 49.0250
L14.0133 49.0250
" />
<path d="M13.6133 56.2250
L13.6133 56.4250
" />
<path d="M13.6133 56.4250
L12.2133 56.4250
" />
<path d="M12.2133 56.4250
L12.2133 56.6250
" />
<path d="M12.2133 56.6250
L12.0133 56.6250
" />
<path d="M12.0133 56.6250
L12.0133 56.8250
" />
<path d="M12.0133 56.8250
L11.8133 56.8250
" />
<path d="M11.8133 56.8250
L11.8133 57.0250
" />
<path d="M11.8133 57.0250
L11.6133 57.0250
" />
<path d="M11.6133 57.0250
L11.6133 57.2250
" />
<path d="M11.6133 57.2250
L11.4133 57.2250
" />
<path d="M11.4133 57.2250
L11.4133 64.0250
" />
<path d="M11.4133 64.0250
L11.0133 64.0250
" />
<path d="M11.0133 64.0250
L11.0133 64.2250
" />
<path d="M11.0133 64.2250
L10.8133 64.2250
" />
<path d="M10.8133 64.2250
L10.8133 64.4250
" />
<path d="M10.8133 64.4250
L10.6133 64.4250
" />
<path d="M10.6133 64.4250
L10.6133 64.8250
" />
<path d="M10.6133 64.8250
L10.4133 64.8250
" />
<path d="M10.4133 64.8250
L10.4133 69.4250
" />
<path d="M10.4133 69.4250
L11.8133 69.4250
" />
<path d="M11.8133 69.4250
L11.8133 69.6250
" />
<path d="M11.8133 69.6250
L12.0133 69.6250
" />
<path d="M12.0133 69.6250
L12.0133 69.8250
" />
<path d="M12.0133 69.8250
L12.2133 69.8250
" />
<path d="M12.2133 69.8250
L12.2133 70.0250
" />
<path d="M12.2133 70.0250
L12.4133 70.0250
" />
<path d="M12.4133 70.0250
L12.4133 70.2250
" />
<path d="M12.4133 70.2250
L12.6133 70.2250
" />
<path d="M12.6133 70.2250
L12.6133 71.0250
" />
<path d="M12.6133 71.0250
L13.6133 71.0250
" />
<path d="M13.6133 71.0250
L13.5533 71.0250
" />
<path d="M17.6133 44.8250
L17.6133 49.2250
" />
<path d="M17.6133 49.2250
L23.4133 49.2250
" />
<path d="M23.4133 49.2250
L23.4133 49.4250
" />
<path d="M23.4133 49.4250
L23.6133 49.4250
" />
<path d="M23.6133 49.4250
L23.6133 49.6250
" />
<path d="M23.6133 49.6250
L23.8133 49.6250
" />
<path d="M23.8133 49.6250
L23.8133 50.4250
" />
<path d="M23.8133 50.4250
L23.6133 50.4250
" />
<path d="M23.6133 50.4250
L23.6133 50.6250
" />
<path d="M23.6133 50.6250
L23.4133 50.6250
" />
<path d="M23.4133 50.6250
L23.4133 50.8250
" />
<path d="M23.4133 50.8250
L19.4133 50.8250
" />
<path d="M19.4133 50.8250
L19.4133 58.6250
" />
<path d="M19.4133 58.6250
L19.2133 58.6250
" />
<path d="M19.2133 58.6250
L19.2133 58.8250
" />
<path d="M19.2133 58.8250
L19.0133 58.8250
" />
<path d="M19.0133 58.8250
L19.0133 59.0250
" />
<path d="M19.0133 59.0250
L18.8133 59.0250
" />
<path d="M18.8133 59.0250
L18.8133 59.2250
" />
<path d="M18.8133 59.2250
L18.4133 59.2250
" />
<path d="M18.4133 59.2250
L18.4133 66.0250
" />
<path d="M18.4133 66.0250
L18.2133 66.0250
" />
<path d="M18.2133 66.0250
L18.2133 66.4250
" />
<path d="M18.2133 66.4250
L18.0133 66.4250
" />
<path d="M18.0133 66.4250
L18.0133 66.6250
" />
<path d="M18.0133 66.6250
L17.6133 66.6250
" />
<path d="M17.6133 66.6250
L17.6133 66.8250
" />
<path d="M17.6133 66.8250
L15.8133 66.8250
" />
<path d="M15.8133 66.8250
L15.8133 64.8250
" />
<path d="M15.8133 64.8250
L15.6133 64.8250
" />
<path d="M15.6133 64.8250
L15.6133 58.0250
" />
<path d="M15.6133 58.0250
L15.5533 58.0250
" />
<path d="M15.5533 58.0250
L15.6133 58.0250
" />
<path d="M15.6133 58.0250
L14.6133 58.0250
" />
<path d="M14.6133 58.0250
L14.6133 58.8250
" />
<path d="M14.6133 58.8250
L14.4133 58.8250
" />
<path d="M14.4133 58.8250
L14.4133 59.0250
" />
<path d="M14.4133 59.0250
L14.2133 59.0250
" />
<path d="M14.2133 59.0250
L14.2133 59.2250
" />
<path d="M14.2133 59.2250
L14.0133 59.2250
" />
<path d="M14.0133 59.2250
L14.0133 59.4250
" />
<path d="M14.0133 59.4250
L13.8133 59.4250
" />
<path d="M13.8133 59.4250
L13.8133 59.6250
" />
<path d="M13.8133 59.6250
L12.0133 59.6250
" />
<path d="M12.0133 59.6250
L12.0133 65.6250
" />
<path d="M12.0133 65.6250
L12.0133 65.5250
" />
<path d="M7.5833 63.3650
L7.6133 63.4250
" />
<path d="M7.6133 63.4250
L7.6133 62.0250
" />
<path d="M7.6133 62.0250
L8.4133 62.0250
" />
<path d="M8.4133 62.0250
L8.4133 61.8250
" />
<path d="M8.4133 61.8250
L8.6133 61.8250
" />
<path d="M8.6133 61.8250
L8.6133 61.6250
" />
<path d="M8.6133 61.6250
L8.8133 61.6250
" />
<path d="M8.8133 61.6250
L8.8133 58.0250
" />
<path d="M8.8133 58.0250
L10.8133 58.0250
" />
<path d="M10.8133 58.0250
L10.8133 56.8250
" />
<path d="M10.8133 56.8250
L11.0133 56.8250
" />
<path d="M11.0133 56.8250
L11.0133 56.6250
" />
<path d="M11.0133 56.6250
L11.2133 56.6250
" />
<path d="M11.2133 56.6250
L11.2133 56.4250
" />
<path d="M11.2133 56.4250
L11.4133 56.4250
" />
<path d="M11.4133 56.4250
L11.4133 56.2250
" />
<path d="M11.4133 56.2250
L11.6133 56.2250
" />
<path d="M11.6133 56.2250
L11.6133 56.0250
" />
<path d="M11.6133 56.0250
L11.8133 56.0250
" />
<path d="M11.8133 56.0250
L11.8133 55.8250
" />
<path d="M11.8133 55.8250
L13.0133 55.8250
" />
<path d="M13.0133 55.8250
L13.0133 55.4250
" />
<path d="M13.0133 55.4250
L14.0133 55.4250
" />
<path d="M14.0133 55.4250
L14.0133 55.6250
" />
<path d="M14.0133 55.6250
L14.2133 55.6250
" />
<path d="M14.2133 55.6250
L14.2133 55.8250
" />
<path d="M14.2133 55.8250
L14.4133 55.8250
" />
<path d="M14.4133 55.8250
L14.4133 56.6250
" />
<path d="M14.4133 56.6250
L14.2133 56.6250
" />
<path d="M14.2133 56.6250
L14.2133 56.8250
" />
<path d="M14.2133 56.8250
L14.0133 56.8250
" />
<path d="M14.0133 56.8250
L14.0133 57.0250
" />
<path d="M14.0133 57.0250
L13.0133 57.0250
" />
<path d="M13.0133 57.0250
L13.0133 58.0250
" />
<path d="M15.8133 67.6250
L15.8133 67.4250
" />
<path d="M15.8133 67.4250
L18.0133 67.4250
" />
<path d="M18.0133 67.4250
L18.0133 67.2250
" />
<path d="M18.0133 67.2250
L18.4133 67.2250
" />
<path d="M18.4133 67.2250
L18.4133 67.0250
" />
<path d="M18.4133 67.0250
L18.6133 67.0250
" />
<path d="M18.6133 67.0250
L18.6133 66.8250
" />
<path d="M18.6133 66.8250
L20.2133 66.8250
" />
<path d="M20.2133 66.8250
L20.2133 66.6250
" />
<path d="M20.2133 66.6250
L20.6133 66.6250
" />
<path d="M20.6133 66.6250
L20.6133 66.2250
" />
<path d="M20.6133 66.2250
L20.8133 66.2250
" />
<path d="M20.8133 66.2250
L20.8133 65.8250
" />
<path d="M20.8133 65.8250
L21.0133 65.8250
" />
<path d="M21.0133 65.8250
L21.0133 59.2250
" />
<path d="M21.0133 59.2250
L21.4133 59.2250
" />
<path d="M21.4133 59.2250
L21.4133 59.0250
" />
<path d="M21.4133 59.0250
L21.6133 59.0250
" />
<path d="M21.6133 59.0250
L21.6133 58.8250
" />
<path d="M21.6133 58.8250
L21.8133 58.8250
" />
<path d="M21.8133 58.8250
L21.8133 58.2250
" />
<path d="M21.8133 58.2250
L22.0133 58.2250
" />
<path d="M22.0133 58.2250
L22.0133 56.6250
" />
<path d="M22.0133 56.6250
L24.8133 56.6250
" />
<path d="M24.8133 56.6250
L24.8133 56.4250
" />
<path d="M24.8133 56.4250
L25.0133 56.4250
" />
<path d="M25.0133 56.4250
L25.0133 56.2250
" />
<path d="M25.0133 56.2250
L25.2133 56.2250
" />
<path d="M25.2133 56.2250
L25.2133 56.0250
" />
<path d="M25.2133 56.0250
L25.4133 56.0250
" />
<path d="M25.4133 56.0250
L25.4133 55.8250
" />
<path d="M25.4133 55.8250
L25.6133 55.8250
" />
<path d="M25.6133 55.8250
L25.6133 55.0250
" />
<path d="M25.6133 55.0250
L26.6133 55.0250
" />
<path d="M26.6133 55.0250
L26.5533 55.0250
" />
<path d="M26.5533 55.0250
L26.6133 55.0250
" />
<path d="M26.6133 55.0250
L26.6133 60.8250
" />
<path d="M26.6133 60.8250
L30.4133 60.8250
" />
<path d="M30.4133 60.8250
L30.4433 60.8250
" />
<path d="M30.4433 60.8250
L30.4133 60.8250
" />
<path d="M30.4133 60.8250
L30.4133 63.4250
" />
<path d="M30.4133 63.4250
L30.4433 63.3650
" />
<path d="M30.4433 63.3650
L30.4133 63.4250
" />
<path d="M30.4133 63.4250
L21.2133 63.4250
" />
<path d="M21.2133 63.4250
L21.2133 71.0250
" />
<path d="M21.2133 71.0250
L21.1733 71.0250
" />
<path style="fill:#4D7FC4; fill-opacity:1.0000; stroke:none;fill-rule:evenodd;"
d="M 6.7333,10.8750
6.7333,9.1750
8.4333,9.1750
8.4333,10.8750
Z" /> 
</g>
<g style="fill:#4D7FC4; fill-opacity:1.0000; stroke:none;">
<circle cx="7.5833" cy="12.5650" r="0.8500" /> 
</g>
<g style="fill:#4D7FC4; fill-opacity:1.0000; stroke:none;">
<circle cx="7.5833" cy="15.1050" r="0.8500" /> 
</g>
<g style="fill:#4D7FC4; fill-opacity:1.0000; stroke:none;">
<circle cx="7.5833" cy="17.6450" r="0.8500" /> 
</g>
<g style="fill:#4D7FC4; fill-opacity:1.0000; stroke:none;">
<circle cx="7.5833" cy="20.1850" r="0.8500" /> 
</g>
<g style="fill:#4D7FC4; fill-opacity:1.0000; stroke:none;">
<circle cx="7.5833" cy="22.7250" r="0.8500" /> 
</g>
<g style="fill:#4D7FC4; fill-opacity:1.0000; stroke:none;">
<circle cx="7.5833" cy="25.2650" r="0.8500" /> 
</g>
<g style="fill:#4D7FC4; fill-opacity:1.0000; stroke:none;">
<circle cx="7.5833" cy="27.8050" r="0.8500" /> 
</g>
<g style="fill:#4D7FC4; fill-opacity:1.0000; stroke:none;">
<circle cx="7.5833" cy="30.3450" r="0.8500" /> 
</g>
<g style="fill:#4D7FC4; fill-opacity:1.0000; stroke:none;">
<circle cx="7.5833" cy="32.8850" r="0.8500" /> 
</g>
<g style="fill:#4D7FC4; fill-opacity:1.0000; stroke:none;">
<circle cx="7.5833" cy="35.4250" r="0.8500" /> 
</g>
<g style="fill:#4D7FC4; fill-opacity:1.0000; stroke:none;">
<circle cx="7.5833" cy="37.9650" r="0.8500" /> 
</g>
<g style="fill:#4D7FC4; fill-opacity:1.0000; stroke:none;">
<circle cx="7.5833" cy="40.5050" r="0.8500" /> 
</g>
<g style="fill:#4D7FC4; fill-opacity:1.0000; stroke:none;">
<circle cx="7.5833" cy="43.0450" r="0.8500" /> 
</g>
<g style="fill:#4D7FC4; fill-opacity:1.0000; stroke:none;">
<circle cx="7.5833" cy="45.5850" r="0.8500" /> 
</g>
<g style="fill:#4D7FC4; fill-opacity:1.0000; stroke:none;">
<circle cx="7.5833" cy="48.1250" r="0.8500" /> 
</g>
<g style="fill:#4D7FC4; fill-opacity:1.0000; stroke:none;">
<circle cx="7.5833" cy="50.6650" r="0.8500" /> 
</g>
<g style="fill:#4D7FC4; fill-opacity:1.0000; stroke:none;">
<circle cx="7.5833" cy="53.2050" r="0.8500" /> 
</g>
<g style="fill:#4D7FC4; fill-opacity:1.0000; stroke:none;">
<circle cx="7.5833" cy="55.7450" r="0.8500" /> 
</g>
<g style="fill:#4D7FC4; fill-opacity:1.0000; stroke:none;">
<circle cx="7.5833" cy="58.2850" r="0.8500" /> 
</g>
<g style="fill:#4D7FC4; fill-opacity:1.0000; stroke:none;">
<circle cx="7.5833" cy="60.8250" r="0.8500" /> 
</g>
<g style="fill:#4D7FC4; fill-opacity:1.0000; stroke:none;">
<circle cx="7.5833" cy="63.3650" r="0.8500" /> 
<path style="fill:#4D7FC4; fill-opacity:1.0000; stroke:none;fill-rule:evenodd;"
d="M 29.5933,10.8750
29.5933,9.1750
31.2933,9.1750
31.2933,10.8750
Z" /> 
</g>
<g style="fill:#4D7FC4; fill-opacity:1.0000; stroke:none;">
<circle cx="30.4433" cy="12.5650" r="0.8500" /> 
</g>
<g style="fill:#4D7FC4; fill-opacity:1.0000; stroke:none;">
<circle cx="30.4433" cy="15.1050" r="0.8500" /> 
</g>
<g style="fill:#4D7FC4; fill-opacity:1.0000; stroke:none;">
<circle cx="30.4433" cy="17.6450" r="0.8500" /> 
</g>
<g style="fill:#4D7FC4; fill-opacity:1.0000; stroke:none;">
<circle cx="30.4433" cy="20.1850" r="0.8500" /> 
</g>
<g style="fill:#4D7FC4; fill-opacity:1.0000; stroke:none;">
<circle cx="30.4433" cy="22.7250" r="0.8500" /> 
</g>
<g style="fill:#4D7FC4; fill-opacity:1.0000; stroke:none;">
<circle cx="30.4433" cy="25.2650" r="0.8500" /> 
</g>
<g style="fill:#4D7FC4; fill-opacity:1.0000; stroke:none;">
<circle cx="30.4433" cy="27.8050" r="0.8500" /> 
</g>
<g style="fill:#4D7FC4; fill-opacity:1.0000; stroke:none;">
<circle cx="30.4433" cy="30.3450" r="0.8500" /> 
</g>
<g style="fill:#4D7FC4; fill-opacity:1.0000; stroke:none;">
<circle cx="30.4433" cy="32.8850" r="0.8500" /> 
</g>
<g style="fill:#4D7FC4; fill-opacity:1.0000; stroke:none;">
<circle cx="30.4433" cy="35.4250" r="0.8500" /> 
</g>
<g style="fill:#4D7FC4; fill-opacity:1.0000; stroke:none;">
<circle cx="30.4433" cy="37.9650" r="0.8500" /> 
</g>
<g style="fill:#4D7FC4; fill-opacity:1.0000; stroke:none;">
<circle cx="30.4433" cy="40.5050" r="0.8500" /> 
</g>
<g style="fill:#4D7FC4; fill-opacity:1.0000; stroke:none;">
<circle cx="30.4433" cy="43.0450" r="0.8500" /> 
</g>
<g style="fill:#4D7FC4; fill-opacity:1.0000; stroke:none;">
<circle cx="30.4433" cy="45.5850" r="0.8500" /> 
</g>
<g style="fill:#4D7FC4; fill-opacity:1.0000; stroke:none;">
<circle cx="30.4433" cy="48.1250" r="0.8500" /> 
</g>
<g style="fill:#4D7FC4; fill-opacity:1.0000; stroke:none;">
<circle cx="30.4433" cy="50.6650" r="0.8500" /> 
</g>
<g style="fill:#4D7FC4; fill-opacity:1.0000; stroke:none;">
<circle cx="30.4433" cy="53.2050" r="0.8500" /> 
</g>
<g style="fill:#4D7FC4; fill-opacity:1.0000; stroke:none;">
<circle cx="30.4433" cy="55.7450" r="0.8500" /> 
</g>
<g style="fill:#4D7FC4; fill-opacity:1.0000; stroke:none;">
<circle cx="30.4433" cy="58.2850" r="0.8500" /> 
</g>
<g style="fill:#4D7FC4; fill-opacity:1.0000; stroke:none;">
<circle cx="30.4433" cy="60.8250" r="0.8500" /> 
</g>
<g style="fill:#4D7FC4; fill-opacity:1.0000; stroke:none;">
<circle cx="30.4433" cy="63.3650" r="0.8500" /> 
<path style="fill:#4D7FC4; fill-opacity:1.0000; stroke:none;fill-rule:evenodd;"
d="M 13.4133,17.5650
13.4316,17.4732
13.4836,17.3953
13.5615,17.3433
13.6533,17.3250
14.3733,17.3250
14.4652,17.3433
14.5430,17.3953
14.5951,17.4732
14.6133,17.5650
14.6133,18.4850
14.5951,18.5768
14.5430,18.6547
14.4652,18.7067
14.3733,18.7250
13.6533,18.7250
13.5615,18.7067
13.4836,18.6547
13.4316,18.5768
13.4133,18.4850
Z" /> 
<path style="fill:#4D7FC4; fill-opacity:1.0000; stroke:none;fill-rule:evenodd;"
d="M 15.4133,17.5650
15.4316,17.4732
15.4836,17.3953
15.5615,17.3433
15.6533,17.3250
16.3733,17.3250
16.4652,17.3433
16.5430,17.3953
16.5951,17.4732
16.6133,17.5650
16.6133,18.4850
16.5951,18.5768
16.5430,18.6547
16.4652,18.7067
16.3733,18.7250
15.6533,18.7250
15.5615,18.7067
15.4836,18.6547
15.4316,18.5768
15.4133,18.4850
Z" /> 
<path style="fill:#4D7FC4; fill-opacity:1.0000; stroke:none;fill-rule:evenodd;"
d="M 13.4133,22.5650
13.4316,22.4732
13.4836,22.3953
13.5615,22.3433
13.6533,22.3250
14.3733,22.3250
14.4652,22.3433
14.5430,22.3953
14.5951,22.4732
14.6133,22.5650
14.6133,23.4850
14.5951,23.5768
14.5430,23.6547
14.4652,23.7067
14.3733,23.7250
13.6533,23.7250
13.5615,23.7067
13.4836,23.6547
13.4316,23.5768
13.4133,23.4850
Z" /> 
<path style="fill:#4D7FC4; fill-opacity:1.0000; stroke:none;fill-rule:evenodd;"
d="M 15.4133,22.5650
15.4316,22.4732
15.4836,22.3953
15.5615,22.3433
15.6533,22.3250
16.3733,22.3250
16.4652,22.3433
16.5430,22.3953
16.5951,22.4732
16.6133,22.5650
16.6133,23.4850
16.5951,23.5768
16.5430,23.6547
16.4652,23.7067
16.3733,23.7250
15.6533,23.7250
15.5615,23.7067
15.4836,23.6547
15.4316,23.5768
15.4133,23.4850
Z" /> 
<path style="fill:#4D7FC4; fill-opacity:1.0000; stroke:none;fill-rule:evenodd;"
d="M 13.4133,27.5650
13.4316,27.4732
13.4836,27.3953
13.5615,27.3433
13.6533,27.3250
14.3733,27.3250
14.4652,27.3433
14.5430,27.3953
14.5951,27.4732
14.6133,27.5650
14.6133,28.4850
14.5951,28.5768
14.5430,28.6547
14.4652,28.7067
14.3733,28.7250
13.6533,28.7250
13.5615,28.7067
13.4836,28.6547
13.4316,28.5768
13.4133,28.4850
Z" /> 
<path style="fill:#4D7FC4; fill-opacity:1.0000; stroke:none;fill-rule:evenodd;"
d="M 15.4133,27.5650
15.4316,27.4732
15.4836,27.3953
15.5615,27.3433
15.6533,27.3250
16.3733,27.3250
16.4652,27.3433
16.5430,27.3953
16.5951,27.4732
16.6133,27.5650
16.6133,28.4850
16.5951,28.5768
16.5430,28.6547
16.4652,28.7067
16.3733,28.7250
15.6533,28.7250
15.5615,28.7067
15.4836,28.6547
15.4316,28.5768
15.4133,28.4850
Z" /> 
<path style="fill:#4D7FC4; fill-opacity:1.0000; stroke:none;fill-rule:evenodd;"
d="M 13.4133,32.5650
13.4316,32.4732
13.4836,32.3953
13.5615,32.3433
13.6533,32.3250
14.3733,32.3250
14.4652,32.3433
14.5430,32.3953
14.5951,32.4732
14.6133,32.5650
14.6133,33.4850
14.5951,33.5768
14.5430,33.6547
14.4652,33.7067
14.3733,33.7250
13.6533,33.7250
13.5615,33.7067
13.4836,33.6547
13.4316,33.5768
13.4133,33.4850
Z" /> 
<path style="fill:#4D7FC4; fill-opacity:1.0000; stroke:none;fill-rule:evenodd;"
d="M 15.4133,32.5650
15.4316,32.4732
15.4836,32.3953
15.5615,32.3433
15.6533,32.3250
16.3733,32.3250
16.4652,32.3433
16.5430,32.3953
16.5951,32.4732
16.6133,32.5650
16.6133,33.4850
16.5951,33.5768
16.5430,33.6547
16.4652,33.7067
16.3733,33.7250
15.6533,33.7250
15.5615,33.7067
15.4836,33.6547
15.4316,33.5768
15.4133,33.4850
Z" /> 
<path style="fill:#4D7FC4; fill-opacity:1.0000; stroke:none;fill-rule:evenodd;"
d="M 17.4133,38.5650
17.4316,38.4732
17.4836,38.3953
17.5615,38.3433
17.6533,38.3250
18.3733,38.3250
18.4652,38.3433
18.5430,38.3953
18.5951,38.4732
18.6133,38.5650
18.6133,39.4850
18.5951,39.5768
18.5430,39.6547
18.4652,39.7067
18.3733,39.7250
17.6533,39.7250
17.5615,39.7067
17.4836,39.6547
17.4316,39.5768
17.4133,39.4850
Z" /> 
<path style="fill:#4D7FC4; fill-opacity:1.0000; stroke:none;fill-rule:evenodd;"
d="M 19.4133,38.5650
19.4316,38.4732
19.4836,38.3953
19.5615,38.3433
19.6533,38.3250
20.3733,38.3250
20.4652,38.3433
20.5430,38.3953
20.5951,38.4732
20.6133,38.5650
20.6133,39.4850
20.5951,39.5768
20.5430,39.6547
20.4652,39.7067
20.3733,39.7250
19.6533,39.7250
19.5615,39.7067
19.4836,39.6547
19.4316,39.5768
19.4133,39.4850
Z" /> 
<path style="fill:#4D7FC4; fill-opacity:1.0000; stroke:none;fill-rule:evenodd;"
d="M 17.4133,43.5650
17.4316,43.4732
17.4836,43.3953
17.5615,43.3433
17.6533,43.3250
18.3733,43.3250
18.4652,43.3433
18.5430,43.3953
18.5951,43.4732
18.6133,43.5650
18.6133,44.4850
18.5951,44.5768
18.5430,44.6547
18.4652,44.7067
18.3733,44.7250
17.6533,44.7250
17.5615,44.7067
17.4836,44.6547
17.4316,44.5768
17.4133,44.4850
Z" /> 
<path style="fill:#4D7FC4; fill-opacity:1.0000; stroke:none;fill-rule:evenodd;"
d="M 19.4133,43.5650
19.4316,43.4732
19.4836,43.3953
19.5615,43.3433
19.6533,43.3250
20.3733,43.3250
20.4652,43.3433
20.5430,43.3953
20.5951,43.4732
20.6133,43.5650
20.6133,44.4850
20.5951,44.5768
20.5430,44.6547
20.4652,44.7067
20.3733,44.7250
19.6533,44.7250
19.5615,44.7067
19.4836,44.6547
19.4316,44.5768
19.4133,44.4850
Z" /> 
<path style="fill:#4D7FC4; fill-opacity:1.0000; stroke:none;fill-rule:evenodd;"
d="M 13.4133,48.5650
13.4316,48.4732
13.4836,48.3953
13.5615,48.3433
13.6533,48.3250
14.3733,48.3250
14.4652,48.3433
14.5430,48.3953
14.5951,48.4732
14.6133,48.5650
14.6133,49.4850
14.5951,49.5768
14.5430,49.6547
14.4652,49.7067
14.3733,49.7250
13.6533,49.7250
13.5615,49.7067
13.4836,49.6547
13.4316,49.5768
13.4133,49.4850
Z" /> 
<path style="fill:#4D7FC4; fill-opacity:1.0000; stroke:none;fill-rule:evenodd;"
d="M 15.4133,48.5650
15.4316,48.4732
15.4836,48.3953
15.5615,48.3433
15.6533,48.3250
16.3733,48.3250
16.4652,48.3433
16.5430,48.3953
16.5951,48.4732
16.6133,48.5650
16.6133,49.4850
16.5951,49.5768
16.5430,49.6547
16.4652,49.7067
16.3733,49.7250
15.6533,49.7250
15.5615,49.7067
15.4836,49.6547
15.4316,49.5768
15.4133,49.4850
Z" /> 
<path style="fill:#4D7FC4; fill-opacity:1.0000; stroke:none;fill-rule:evenodd;"
d="M 22.4133,17.5650
22.4316,17.4732
22.4836,17.3953
22.5615,17.3433
22.6533,17.3250
23.3733,17.3250
23.4652,17.3433
23.5430,17.3953
23.5951,17.4732
23.6133,17.5650
23.6133,18.4850
23.5951,18.5768
23.5430,18.6547
23.4652,18.7067
23.3733,18.7250
22.6533,18.7250
22.5615,18.7067
22.4836,18.6547
22.4316,18.5768
22.4133,18.4850
Z" /> 
<path style="fill:#4D7FC4; fill-opacity:1.0000; stroke:none;fill-rule:evenodd;"
d="M 24.4133,17.5650
24.4316,17.4732
24.4836,17.3953
24.5615,17.3433
24.6533,17.3250
25.3733,17.3250
25.4652,17.3433
25.5430,17.3953
25.5951,17.4732
25.6133,17.5650
25.6133,18.4850
25.5951,18.5768
25.5430,18.6547
25.4652,18.7067
25.3733,18.7250
24.6533,18.7250
24.5615,18.7067
24.4836,18.6547
24.4316,18.5768
24.4133,18.4850
Z" /> 
<path style="fill:#4D7FC4; fill-opacity:1.0000; stroke:none;fill-rule:evenodd;"
d="M 22.4133,23.5650
22.4316,23.4732
22.4836,23.3953
22.5615,23.3433
22.6533,23.3250
23.3733,23.3250
23.4652,23.3433
23.5430,23.3953
23.5951,23.4732
23.6133,23.5650
23.6133,24.4850
23.5951,24.5768
23.5430,24.6547
23.4652,24.7067
23.3733,24.7250
22.6533,24.7250
22.5615,24.7067
22.4836,24.6547
22.4316,24.5768
22.4133,24.4850
Z" /> 
<path style="fill:#4D7FC4; fill-opacity:1.0000; stroke:none;fill-rule:evenodd;"
d="M 24.4133,23.5650
24.4316,23.4732
24.4836,23.3953
24.5615,23.3433
24.6533,23.3250
25.3733,23.3250
25.4652,23.3433
25.5430,23.3953
25.5951,23.4732
25.6133,23.5650
25.6133,24.4850
25.5951,24.5768
25.5430,24.6547
25.4652,24.7067
25.3733,24.7250
24.6533,24.7250
24.5615,24.7067
24.4836,24.6547
24.4316,24.5768
24.4133,24.4850
Z" /> 
<path style="fill:#4D7FC4; fill-opacity:1.0000; stroke:none;fill-rule:evenodd;"
d="M 22.4133,29.5650
22.4316,29.4732
22.4836,29.3953
22.5615,29.3433
22.6533,29.3250
23.3733,29.3250
23.4652,29.3433
23.5430,29.3953
23.5951,29.4732
23.6133,29.5650
23.6133,30.4850
23.5951,30.5768
23.5430,30.6547
23.4652,30.7067
23.3733,30.7250
22.6533,30.7250
22.5615,30.7067
22.4836,30.6547
22.4316,30.5768
22.4133,30.4850
Z" /> 
<path style="fill:#4D7FC4; fill-opacity:1.0000; stroke:none;fill-rule:evenodd;"
d="M 24.4133,29.5650
24.4316,29.4732
24.4836,29.3953
24.5615,29.3433
24.6533,29.3250
25.3733,29.3250
25.4652,29.3433
25.5430,29.3953
25.5951,29.4732
25.6133,29.5650
25.6133,30.4850
25.5951,30.5768
25.5430,30.6547
25.4652,30.7067
25.3733,30.7250
24.6533,30.7250
24.5615,30.7067
24.4836,30.6547
24.4316,30.5768
24.4133,30.4850
Z" /> 
<path style="fill:#4D7FC4; fill-opacity:1.0000; stroke:none;fill-rule:evenodd;"
d="M 22.4133,49.5650
22.4316,49.4732
22.4836,49.3953
22.5615,49.3433
22.6533,49.3250
23.3733,49.3250
23.4652,49.3433
23.5430,49.3953
23.5951,49.4732
23.6133,49.5650
23.6133,50.4850
23.5951,50.5768
23.5430,50.6547
23.4652,50.7067
23.3733,50.7250
22.6533,50.7250
22.5615,50.7067
22.4836,50.6547
22.4316,50.5768
22.4133,50.4850
Z" /> 
<path style="fill:#4D7FC4; fill-opacity:1.0000; stroke:none;fill-rule:evenodd;"
d="M 24.4133,49.5650
24.4316,49.4732
24.4836,49.3953
24.5615,49.3433
24.6533,49.3250
25.3733,49.3250
25.4652,49.3433
25.5430,49.3953
25.5951,49.4732
25.6133,49.5650
25.6133,50.4850
25.5951,50.5768
25.5430,50.6547
25.4652,50.7067
25.3733,50.7250
24.6533,50.7250
24.5615,50.7067
24.4836,50.6547
24.4316,50.5768
24.4133,50.4850
Z" /> 
<path style="fill:#4D7FC4; fill-opacity:1.0000; stroke:none;fill-rule:evenodd;"
d="M 12.1633,58.8750
12.1633,57.1750
13.8633,57.1750
13.8633,58.8750
Z" /> 
</g>
<g style="fill:#4D7FC4; fill-opacity:1.0000; stroke:none;">
<circle cx="15.5533" cy="58.0250" r="0.8500" /> 
</g>
<g style="fill:#4D7FC4; fill-opacity:1.0000; stroke:none;">
<circle cx="18.0933" cy="58.0250" r="0.8500" /> 
</g>
<g style="fill:#4D7FC4; fill-opacity:1.0000; stroke:none;">
<circle cx="20.6333" cy="58.0250" r="0.8500" /> 
<path style="fill:#4D7FC4; fill-opacity:1.0000; stroke:none;fill-rule:evenodd;"
d="M 11.1633,66.3750
11.1633,64.6750
12.8633,64.6750
12.8633,66.3750
Z" /> 
</g>
<g style="fill:#4D7FC4; fill-opacity:1.0000; stroke:none;">
<circle cx="14.5533" cy="65.5250" r="0.8500" /> 
</g>
<g style="fill:#4D7FC4; fill-opacity:1.0000; stroke:none;">
<circle cx="17.0933" cy="65.5250" r="0.8500" /> 
</g>
<g style="fill:#4D7FC4; fill-opacity:1.0000; stroke:none;">
<circle cx="19.6333" cy="65.5250" r="0.8500" /> 
<path style="fill:#4D7FC4; fill-opacity:1.0000; stroke:none;fill-rule:evenodd;"
d="M 23.1633,55.8750
23.1633,54.1750
24.8633,54.1750
24.8633,55.8750
Z" /> 
</g>
<g style="fill:#4D7FC4; fill-opacity:1.0000; stroke:none;">
<circle cx="26.5533" cy="55.0250" r="0.8500" /> 
<path style="fill:#4D7FC4; fill-opacity:1.0000; stroke:none;fill-rule:evenodd;"
d="M 10.1633,71.8750
10.1633,70.1750
11.8633,70.1750
11.8633,71.8750
Z" /> 
</g>
<g style="fill:#4D7FC4; fill-opacity:1.0000; stroke:none;">
<circle cx="13.5533" cy="71.0250" r="0.8500" /> 
</g>
<g style="fill:#4D7FC4; fill-opacity:1.0000; stroke:none;">
<circle cx="16.0933" cy="71.0250" r="0.8500" /> 
</g>
<g style="fill:#4D7FC4; fill-opacity:1.0000; stroke:none;">
<circle cx="18.6333" cy="71.0250" r="0.8500" /> 
</g>
<g style="fill:#4D7FC4; fill-opacity:1.0000; stroke:none;">
<circle cx="21.1733" cy="71.0250" r="0.8500" /> 
</g>
<g style="fill:#4D7FC4; fill-opacity:1.0000; stroke:none;">
<circle cx="23.7133" cy="71.0250" r="0.8500" /> 
</g>
<g style="fill:#4D7FC4; fill-opacity:1.0000; stroke:none;">
<circle cx="16.0133" cy="26.4250" r="0.3250" /> 
</g>
<g style="fill:#4D7FC4; fill-opacity:1.0000; stroke:none;">
<circle cx="14.0133" cy="28.0250" r="0.3250" /> 
</g>
<g style="fill:#4D7FC4; fill-opacity:1.0000; stroke:none;">
<circle cx="14.0133" cy="23.0250" r="0.3250" /> 
</g>
<g style="fill:#4D7FC4; fill-opacity:1.0000; stroke:none;">
<circle cx="14.0133" cy="33.0250" r="0.3250" /> 
</g>
<g style="fill:#4D7FC4; fill-opacity:1.0000; stroke:none;">
<circle cx="15.2133" cy="29.4250" r="0.3250" /> 
</g>
<g style="fill:#4D7FC4; fill-opacity:1.0000; stroke:none;">
<circle cx="23.0133" cy="50.0250" r="0.3250" /> 
</g>
<g style="fill:#4D7FC4; fill-opacity:1.0000; stroke:none;">
<circle cx="15.2133" cy="48.0250" r="0.3250" /> 
</g>
<g style="fill:#4D7FC4; fill-opacity:1.0000; stroke:none;">
<circle cx="11.8133" cy="27.2250" r="0.3250" /> 
</g>
<g style="fill:#4D7FC4; fill-opacity:1.0000; stroke:none;">
<circle cx="20.0133" cy="44.0250" r="0.3250" /> 
</g>
<g style="fill:#4D7FC4; fill-opacity:1.0000; stroke:none;">
<circle cx="18.2133" cy="50.8250" r="0.3250" /> 
</g>
<g style="fill:#4D7FC4; fill-opacity:1.0000; stroke:none;">
<circle cx="10.8133" cy="27.2250" r="0.3250" /> 
</g>
<g style="fill:#4D7FC4; fill-opacity:1.0000; stroke:none;">
<circle cx="20.0133" cy="39.0250" r="0.3250" /> 
</g>
<g style="fill:#4D7FC4; fill-opacity:1.0000; stroke:none;">
<circle cx="11.8133" cy="49.0250" r="0.3250" /> 
</g>
<g style="fill:#4D7FC4; fill-opacity:1.0000; stroke:none;">
<circle cx="14.0133" cy="49.0250" r="0.3250" /> 
</g>
<g style="fill:#4D7FC4; fill-opacity:1.0000; stroke:none;">
<circle cx="13.6133" cy="56.2250" r="0.3250" /> 
</g>
<g style="fill:#4D7FC4; fill-opacity:1.0000; stroke:none;">
<circle cx="17.6133" cy="44.8250" r="0.3250" /> 
</g>
<g style="fill:#4D7FC4; fill-opacity:1.0000; stroke:none;">
<circle cx="15.8133" cy="67.6250" r="0.3250" /> 
</g>
<g style="fill:none; 
stroke:#4D7FC4; stroke-width:0.2500; stroke-opacity:1; 
stroke-linecap:round; stroke-linejoin:round;">
<path d="M16.0133 28.0250
L16.0133 31.6250
" />
<path d="M16.0133 31.6250
L16.4133 31.6250
" />
<path d="M16.4133 31.6250
L16.4133 31.8250
" />
<path d="M16.4133 31.8250
L16.8133 31.8250
" />
<path d="M16.8133 31.8250
L16.8133 32.0250
" />
<path d="M16.8133 32.0250
L17.0133 32.0250
" />
<path d="M17.0133 32.0250
L17.0133 32.2250
" />
<path d="M17.0133 32.2250
L17.2133 32.2250
" />
<path d="M17.2133 32.2250
L17.2133 32.6250
" />
<path d="M17.2133 32.6250
L17.4133 32.6250
" />
<path d="M17.4133 32.6250
L17.4133 37.8250
" />
<path d="M17.4133 37.8250
L17.2133 37.8250
" />
<path d="M17.2133 37.8250
L17.2133 38.0250
" />
<path d="M17.2133 38.0250
L17.0133 38.0250
" />
<path d="M17.0133 38.0250
L17.0133 38.2250
" />
<path d="M17.0133 38.2250
L16.8133 38.2250
" />
<path d="M16.8133 38.2250
L16.8133 38.6250
" />
<path d="M16.8133 38.6250
L16.6133 38.6250
" />
<path d="M16.6133 38.6250
L16.6133 47.8250
" />
<path d="M16.6133 47.8250
L16.8133 47.8250
" />
<path d="M16.8133 47.8250
L16.8133 48.0250
" />
<path d="M16.8133 48.0250
L17.0133 48.0250
" />
<path d="M17.0133 48.0250
L17.0133 48.2250
" />
<path d="M17.0133 48.2250
L17.2133 48.2250
" />
<path d="M17.2133 48.2250
L17.2133 48.6250
" />
<path d="M17.2133 48.6250
L17.4133 48.6250
" />
<path d="M17.4133 48.6250
L17.4133 56.8250
" />
<path d="M17.4133 56.8250
L18.8133 56.8250
" />
<path d="M18.8133 56.8250
L18.8133 57.0250
" />
<path d="M18.8133 57.0250
L19.0133 57.0250
" />
<path d="M19.0133 57.0250
L19.0133 57.2250
" />
<path d="M19.0133 57.2250
L19.2133 57.2250
" />
<path d="M19.2133 57.2250
L19.2133 57.4250
" />
<path d="M19.2133 57.4250
L19.4133 57.4250
" />
<path d="M19.4133 57.4250
L19.4133 65.6250
" />
<path d="M19.4133 65.6250
L19.6133 65.6250
" />
<path d="M19.6133 65.6250
L19.6333 65.5250
" />
<path d="M16.0133 23.0250
L16.0133 26.4250
" />
<path d="M16.0133 18.0250
L15.4133 18.0250
" />
<path d="M15.4133 18.0250
L15.4133 18.4250
" />
<path d="M15.4133 18.4250
L15.2133 18.4250
" />
<path d="M15.2133 18.4250
L15.2133 18.8250
" />
<path d="M15.2133 18.8250
L15.0133 18.8250
" />
<path d="M15.0133 18.8250
L15.0133 19.0250
" />
<path d="M15.0133 19.0250
L14.8133 19.0250
" />
<path d="M14.8133 19.0250
L14.8133 19.2250
" />
<path d="M14.8133 19.2250
L14.6133 19.2250
" />
<path d="M14.6133 19.2250
L14.6133 21.6250
" />
<path d="M14.6133 21.6250
L13.6133 21.6250
" />
<path d="M13.6133 21.6250
L13.6133 21.8250
" />
<path d="M13.6133 21.8250
L13.2133 21.8250
" />
<path d="M13.2133 21.8250
L13.2133 22.0250
" />
<path d="M13.2133 22.0250
L13.0133 22.0250
" />
<path d="M13.0133 22.0250
L13.0133 22.2250
" />
<path d="M13.0133 22.2250
L12.8133 22.2250
" />
<path d="M12.8133 22.2250
L12.8133 22.6250
" />
<path d="M12.8133 22.6250
L12.6133 22.6250
" />
<path d="M12.6133 22.6250
L12.6133 56.4250
" />
<path d="M12.6133 56.4250
L12.2133 56.4250
" />
<path d="M12.2133 56.4250
L12.2133 56.6250
" />
<path d="M12.2133 56.6250
L12.0133 56.6250
" />
<path d="M12.0133 56.6250
L12.0133 56.8250
" />
<path d="M12.0133 56.8250
L11.8133 56.8250
" />
<path d="M11.8133 56.8250
L11.8133 57.0250
" />
<path d="M11.8133 57.0250
L11.6133 57.0250
" />
<path d="M11.6133 57.0250
L11.6133 57.2250
" />
<path d="M11.6133 57.2250
L11.4133 57.2250
" />
<path d="M11.4133 57.2250
L11.4133 63.8250
" />
<path d="M11.4133 63.8250
L12.4133 63.8250
" />
<path d="M12.4133 63.8250
L12.4133 64.0250
" />
<path d="M12.4133 64.0250
L13.0133 64.0250
" />
<path d="M13.0133 64.0250
L13.0133 64.2250
" />
<path d="M13.0133 64.2250
L13.2133 64.2250
" />
<path d="M13.2133 64.2250
L13.2133 64.4250
" />
<path d="M13.2133 64.4250
L13.4133 64.4250
" />
<path d="M13.4133 64.4250
L13.4133 64.8250
" />
<path d="M13.4133 64.8250
L13.6133 64.8250
" />
<path d="M13.6133 64.8250
L13.6133 65.6250
" />
<path d="M13.6133 65.6250
L14.6133 65.6250
" />
<path d="M14.6133 65.6250
L14.5533 65.5250
" />
<path d="M7.5833 17.6450
L7.6133 17.6250
" />
<path d="M7.6133 17.6250
L7.6133 18.0250
" />
<path d="M7.6133 18.0250
L14.0133 18.0250
" />
<path d="M16.0133 33.0250
L15.4133 33.0250
" />
<path d="M15.4133 33.0250
L15.4133 32.6250
" />
<path d="M15.4133 32.6250
L15.2133 32.6250
" />
<path d="M15.2133 32.6250
L15.2133 29.4250
" />
<path d="M23.0133 50.0250
L23.0133 55.0250
" />
<path d="M23.0133 55.0250
L24.0133 55.0250
" />
<path d="M15.2133 48.0250
L15.2133 48.6250
" />
<path d="M15.2133 48.6250
L15.4133 48.6250
" />
<path d="M15.4133 48.6250
L15.4133 49.0250
" />
<path d="M15.4133 49.0250
L16.0133 49.0250
" />
<path d="M16.0133 49.0250
L16.0133 56.8250
" />
<path d="M16.0133 56.8250
L16.2133 56.8250
" />
<path d="M16.2133 56.8250
L16.2133 57.0250
" />
<path d="M16.2133 57.0250
L16.6133 57.0250
" />
<path d="M16.6133 57.0250
L16.6133 57.4250
" />
<path d="M16.6133 57.4250
L16.8133 57.4250
" />
<path d="M16.8133 57.4250
L16.8133 64.2250
" />
<path d="M16.8133 64.2250
L17.6133 64.2250
" />
<path d="M17.6133 64.2250
L17.6133 64.4250
" />
<path d="M17.6133 64.4250
L18.0133 64.4250
" />
<path d="M18.0133 64.4250
L18.0133 64.6250
" />
<path d="M18.0133 64.6250
L18.2133 64.6250
" />
<path d="M18.2133 64.6250
L18.2133 65.0250
" />
<path d="M18.2133 65.0250
L18.4133 65.0250
" />
<path d="M18.4133 65.0250
L18.4133 71.0250
" />
<path d="M18.4133 71.0250
L18.6133 71.0250
" />
<path d="M18.6133 71.0250
L18.6333 71.0250
" />
<path d="M7.5833 45.5850
L7.6133 45.6250
" />
<path d="M7.6133 45.6250
L7.6133 44.4250
" />
<path d="M7.6133 44.4250
L7.8133 44.4250
" />
<path d="M7.8133 44.4250
L7.8133 44.2250
" />
<path d="M7.8133 44.2250
L8.4133 44.2250
" />
<path d="M8.4133 44.2250
L8.4133 44.0250
" />
<path d="M8.4133 44.0250
L11.8133 44.0250
" />
<path d="M11.8133 44.0250
L11.8133 27.2250
" />
<path d="M20.0133 44.0250
L19.4133 44.0250
" />
<path d="M19.4133 44.0250
L19.4133 44.4250
" />
<path d="M19.4133 44.4250
L19.2133 44.4250
" />
<path d="M19.2133 44.4250
L19.2133 44.8250
" />
<path d="M19.2133 44.8250
L19.0133 44.8250
" />
<path d="M19.0133 44.8250
L19.0133 45.0250
" />
<path d="M19.0133 45.0250
L18.8133 45.0250
" />
<path d="M18.8133 45.0250
L18.8133 45.2250
" />
<path d="M18.8133 45.2250
L18.4133 45.2250
" />
<path d="M18.4133 45.2250
L18.4133 45.4250
" />
<path d="M18.4133 45.4250
L18.2133 45.4250
" />
<path d="M18.2133 45.4250
L18.2133 50.8250
" />
<path d="M7.5833 37.9650
L7.6133 38.0250
" />
<path d="M7.6133 38.0250
L10.8133 38.0250
" />
<path d="M10.8133 38.0250
L10.8133 27.2250
" />
<path d="M20.0133 39.0250
L20.0133 42.6250
" />
<path d="M20.0133 42.6250
L20.4133 42.6250
" />
<path d="M20.4133 42.6250
L20.4133 42.8250
" />
<path d="M20.4133 42.8250
L20.8133 42.8250
" />
<path d="M20.8133 42.8250
L20.8133 43.0250
" />
<path d="M20.8133 43.0250
L21.0133 43.0250
" />
<path d="M21.0133 43.0250
L21.0133 43.2250
" />
<path d="M21.0133 43.2250
L21.2133 43.2250
" />
<path d="M21.2133 43.2250
L21.2133 43.6250
" />
<path d="M21.2133 43.6250
L21.4133 43.6250
" />
<path d="M21.4133 43.6250
L21.4133 44.4250
" />
<path d="M21.4133 44.4250
L21.2133 44.4250
" />
<path d="M21.2133 44.4250
L21.2133 44.8250
" />
<path d="M21.2133 44.8250
L21.0133 44.8250
" />
<path d="M21.0133 44.8250
L21.0133 45.0250
" />
<path d="M21.0133 45.0250
L20.8133 45.0250
" />
<path d="M20.8133 45.0250
L20.8133 45.2250
" />
<path d="M20.8133 45.2250
L20.6133 45.2250
" />
<path d="M20.6133 45.2250
L20.6133 58.0250
" />
<path d="M20.6133 58.0250
L20.6333 58.0250
" />
<path d="M7.5833 12.5650
L7.6133 12.6250
" />
<path d="M7.6133 12.6250
L7.6133 13.8250
" />
<path d="M7.6133 13.8250
L8.2133 13.8250
" />
<path d="M8.2133 13.8250
L8.2133 14.0250
" />
<path d="M8.2133 14.0250
L8.4133 14.0250
" />
<path d="M8.4133 14.0250
L8.4133 14.2250
" />
<path d="M8.4133 14.2250
L8.6133 14.2250
" />
<path d="M8.6133 14.2250
L8.6133 14.4250
" />
<path d="M8.6133 14.4250
L8.8133 14.4250
" />
<path d="M8.8133 14.4250
L8.8133 16.6250
" />
<path d="M8.8133 16.6250
L16.4133 16.6250
" />
<path d="M16.4133 16.6250
L16.4133 16.8250
" />
<path d="M16.4133 16.8250
L16.8133 16.8250
" />
<path d="M16.8133 16.8250
L16.8133 17.0250
" />
<path d="M16.8133 17.0250
L17.0133 17.0250
" />
<path d="M17.0133 17.0250
L17.0133 17.2250
" />
<path d="M17.0133 17.2250
L17.2133 17.2250
" />
<path d="M17.2133 17.2250
L17.2133 17.6250
" />
<path d="M17.2133 17.6250
L17.4133 17.6250
" />
<path d="M17.4133 17.6250
L17.4133 18.0250
" />
<path d="M17.4133 18.0250
L23.0133 18.0250
" />
<path d="M23.0133 18.0250
L17.4133 18.0250
" />
<path d="M17.4133 18.0250
L17.4133 17.6250
" />
<path d="M17.4133 17.6250
L17.2133 17.6250
" />
<path d="M17.2133 17.6250
L17.2133 17.2250
" />
<path d="M17.2133 17.2250
L17.0133 17.2250
" />
<path d="M17.0133 17.2250
L17.0133 17.0250
" />
<path d="M17.0133 17.0250
L16.8133 17.0250
" />
<path d="M16.8133 17.0250
L16.8133 16.8250
" />
<path d="M16.8133 16.8250
L16.4133 16.8250
" />
<path d="M16.4133 16.8250
L16.4133 16.6250
" />
<path d="M16.4133 16.6250
L8.2133 16.6250
" />
<path d="M8.2133 16.6250
L8.2133 16.4250
" />
<path d="M8.2133 16.4250
L6.8133 16.4250
" />
<path d="M6.8133 16.4250
L6.8133 16.6250
" />
<path d="M6.8133 16.6250
L6.6133 16.6250
" />
<path d="M6.6133 16.6250
L6.6133 16.8250
" />
<path d="M6.6133 16.8250
L6.4133 16.8250
" />
<path d="M6.4133 16.8250
L6.4133 17.2250
" />
<path d="M6.4133 17.2250
L6.2133 17.2250
" />
<path d="M6.2133 17.2250
L6.2133 46.8250
" />
<path d="M6.2133 46.8250
L8.2133 46.8250
" />
<path d="M8.2133 46.8250
L8.2133 47.0250
" />
<path d="M8.2133 47.0250
L8.4133 47.0250
" />
<path d="M8.4133 47.0250
L8.4133 47.2250
" />
<path d="M8.4133 47.2250
L8.6133 47.2250
" />
<path d="M8.6133 47.2250
L8.6133 47.4250
" />
<path d="M8.6133 47.4250
L8.8133 47.4250
" />
<path d="M8.8133 47.4250
L8.8133 49.0250
" />
<path d="M8.8133 49.0250
L11.8133 49.0250
" />
<path d="M14.0133 49.0250
L13.6133 49.0250
" />
<path d="M13.6133 49.0250
L13.6133 56.2250
" />
<path d="M18.0133 39.0250
L18.0133 44.0250
" />
<path d="M18.0133 39.0250
L18.0133 30.0250
" />
<path d="M18.0133 30.0250
L23.0133 30.0250
" />
<path d="M23.0133 30.0250
L23.0133 24.0250
" />
<path d="M18.0133 44.0250
L17.6133 44.0250
" />
<path d="M17.6133 44.0250
L17.6133 44.8250
" />
<path d="M12.0133 65.5250
L12.0133 65.6250
" />
<path d="M12.0133 65.6250
L11.0133 65.6250
" />
<path d="M11.0133 65.6250
L11.0133 71.0250
" />
<path d="M13.0133 58.0250
L14.2133 58.0250
" />
<path d="M14.2133 58.0250
L14.2133 58.4250
" />
<path d="M14.2133 58.4250
L14.4133 58.4250
" />
<path d="M14.4133 58.4250
L14.4133 58.8250
" />
<path d="M14.4133 58.8250
L14.6133 58.8250
" />
<path d="M14.6133 58.8250
L14.6133 59.0250
" />
<path d="M14.6133 59.0250
L14.8133 59.0250
" />
<path d="M14.8133 59.0250
L14.8133 59.2250
" />
<path d="M14.8133 59.2250
L15.8133 59.2250
" />
<path d="M15.8133 59.2250
L15.8133 67.6250
" />
<path d="M26.5533 55.0250
L26.6133 55.0250
" />
<path d="M26.6133 55.0250
L25.6133 55.0250
" />
<path d="M25.6133 55.0250
L25.6133 54.2250
" />
<path d="M25.6133 54.2250
L25.4133 54.2250
" />
<path d="M25.4133 54.2250
L25.4133 54.0250
" />
<path d="M25.4133 54.0250
L25.2133 54.0250
" />
<path d="M25.2133 54.0250
L25.2133 53.8250
" />
<path d="M25.2133 53.8250
L25.0133 53.8250
" />
<path d="M25.0133 53.8250
L25.0133 50.0250
" />
<path d="M25.0133 50.0250
L25.0133 30.0250
" />
<path d="M25.0133 30.0250
L25.0133 24.0250
" />
<path d="M25.0133 24.0250
L25.0133 18.0250
" />
<path d="M25.0133 18.0250
L25.0133 10.0250
" />
<path d="M25.0133 10.0250
L30.4133 10.0250
" />
<path d="M30.4133 10.0250
L30.4433 10.0250
" />
</g>
<g style="fill:none; 
stroke:#F2EDA1; stroke-width:0.1200; stroke-opacity:1; 
stroke-linecap:round; stroke-linejoin:round;">
<text x="19.0133" y="7.4250"
textLength="20.3143" font-size="1.0667" lengthAdjust="spacingAndGlyphs"
text-anchor="middle" opacity="0" stroke-opacity="0">LINGBAN EVT-A / NOT-FOR-FAB</text>
<g class="stroked-text"><desc>LINGBAN EVT-A / NOT-FOR-FAB</desc>
<path d="M9.5276 7.3889
L9.1467 7.3889
" />
<path d="M9.1467 7.3889
L9.1467 6.5889
" />
<path d="M9.7943 7.3889
L9.7943 6.5889
" />
<path d="M10.1752 7.3889
L10.1752 6.5889
" />
<path d="M10.1752 6.5889
L10.6324 7.3889
" />
<path d="M10.6324 7.3889
L10.6324 6.5889
" />
<path d="M11.4324 6.6269
L11.3562 6.5889
" />
<path d="M11.3562 6.5889
L11.2419 6.5889
" />
<path d="M11.2419 6.5889
L11.1276 6.6269
" />
<path d="M11.1276 6.6269
L11.0514 6.7031
" />
<path d="M11.0514 6.7031
L11.0133 6.7793
" />
<path d="M11.0133 6.7793
L10.9752 6.9317
" />
<path d="M10.9752 6.9317
L10.9752 7.0460
" />
<path d="M10.9752 7.0460
L11.0133 7.1984
" />
<path d="M11.0133 7.1984
L11.0514 7.2746
" />
<path d="M11.0514 7.2746
L11.1276 7.3508
" />
<path d="M11.1276 7.3508
L11.2419 7.3889
" />
<path d="M11.2419 7.3889
L11.3181 7.3889
" />
<path d="M11.3181 7.3889
L11.4324 7.3508
" />
<path d="M11.4324 7.3508
L11.4705 7.3127
" />
<path d="M11.4705 7.3127
L11.4705 7.0460
" />
<path d="M11.4705 7.0460
L11.3181 7.0460
" />
<path d="M12.0800 6.9698
L12.1943 7.0079
" />
<path d="M12.1943 7.0079
L12.2324 7.0460
" />
<path d="M12.2324 7.0460
L12.2705 7.1222
" />
<path d="M12.2705 7.1222
L12.2705 7.2365
" />
<path d="M12.2705 7.2365
L12.2324 7.3127
" />
<path d="M12.2324 7.3127
L12.1943 7.3508
" />
<path d="M12.1943 7.3508
L12.1181 7.3889
" />
<path d="M12.1181 7.3889
L11.8133 7.3889
" />
<path d="M11.8133 7.3889
L11.8133 6.5889
" />
<path d="M11.8133 6.5889
L12.0800 6.5889
" />
<path d="M12.0800 6.5889
L12.1562 6.6269
" />
<path d="M12.1562 6.6269
L12.1943 6.6650
" />
<path d="M12.1943 6.6650
L12.2324 6.7412
" />
<path d="M12.2324 6.7412
L12.2324 6.8174
" />
<path d="M12.2324 6.8174
L12.1943 6.8936
" />
<path d="M12.1943 6.8936
L12.1562 6.9317
" />
<path d="M12.1562 6.9317
L12.0800 6.9698
" />
<path d="M12.0800 6.9698
L11.8133 6.9698
" />
<path d="M12.5752 7.1603
L12.9562 7.1603
" />
<path d="M12.4990 7.3889
L12.7657 6.5889
" />
<path d="M12.7657 6.5889
L13.0324 7.3889
" />
<path d="M13.2990 7.3889
L13.2990 6.5889
" />
<path d="M13.2990 6.5889
L13.7562 7.3889
" />
<path d="M13.7562 7.3889
L13.7562 6.5889
" />
<path d="M14.7467 6.9698
L15.0133 6.9698
" />
<path d="M15.1276 7.3889
L14.7467 7.3889
" />
<path d="M14.7467 7.3889
L14.7467 6.5889
" />
<path d="M14.7467 6.5889
L15.1276 6.5889
" />
<path d="M15.3562 6.5889
L15.6229 7.3889
" />
<path d="M15.6229 7.3889
L15.8895 6.5889
" />
<path d="M16.0419 6.5889
L16.4990 6.5889
" />
<path d="M16.2705 7.3889
L16.2705 6.5889
" />
<path d="M16.7657 7.0841
L17.3752 7.0841
" />
<path d="M17.7181 7.1603
L18.0990 7.1603
" />
<path d="M17.6419 7.3889
L17.9086 6.5889
" />
<path d="M17.9086 6.5889
L18.1752 7.3889
" />
<path d="M19.6229 6.5508
L18.9371 7.5793
" />
<path d="M20.4990 7.3889
L20.4990 6.5889
" />
<path d="M20.4990 6.5889
L20.9562 7.3889
" />
<path d="M20.9562 7.3889
L20.9562 6.5889
" />
<path d="M21.4895 6.5889
L21.6419 6.5889
" />
<path d="M21.6419 6.5889
L21.7181 6.6269
" />
<path d="M21.7181 6.6269
L21.7943 6.7031
" />
<path d="M21.7943 6.7031
L21.8324 6.8555
" />
<path d="M21.8324 6.8555
L21.8324 7.1222
" />
<path d="M21.8324 7.1222
L21.7943 7.2746
" />
<path d="M21.7943 7.2746
L21.7181 7.3508
" />
<path d="M21.7181 7.3508
L21.6419 7.3889
" />
<path d="M21.6419 7.3889
L21.4895 7.3889
" />
<path d="M21.4895 7.3889
L21.4133 7.3508
" />
<path d="M21.4133 7.3508
L21.3371 7.2746
" />
<path d="M21.3371 7.2746
L21.2990 7.1222
" />
<path d="M21.2990 7.1222
L21.2990 6.8555
" />
<path d="M21.2990 6.8555
L21.3371 6.7031
" />
<path d="M21.3371 6.7031
L21.4133 6.6269
" />
<path d="M21.4133 6.6269
L21.4895 6.5889
" />
<path d="M22.0610 6.5889
L22.5181 6.5889
" />
<path d="M22.2895 7.3889
L22.2895 6.5889
" />
<path d="M22.7848 7.0841
L23.3943 7.0841
" />
<path d="M24.0419 6.9698
L23.7752 6.9698
" />
<path d="M23.7752 7.3889
L23.7752 6.5889
" />
<path d="M23.7752 6.5889
L24.1562 6.5889
" />
<path d="M24.6133 6.5889
L24.7657 6.5889
" />
<path d="M24.7657 6.5889
L24.8419 6.6269
" />
<path d="M24.8419 6.6269
L24.9181 6.7031
" />
<path d="M24.9181 6.7031
L24.9562 6.8555
" />
<path d="M24.9562 6.8555
L24.9562 7.1222
" />
<path d="M24.9562 7.1222
L24.9181 7.2746
" />
<path d="M24.9181 7.2746
L24.8419 7.3508
" />
<path d="M24.8419 7.3508
L24.7657 7.3889
" />
<path d="M24.7657 7.3889
L24.6133 7.3889
" />
<path d="M24.6133 7.3889
L24.5371 7.3508
" />
<path d="M24.5371 7.3508
L24.4610 7.2746
" />
<path d="M24.4610 7.2746
L24.4229 7.1222
" />
<path d="M24.4229 7.1222
L24.4229 6.8555
" />
<path d="M24.4229 6.8555
L24.4610 6.7031
" />
<path d="M24.4610 6.7031
L24.5371 6.6269
" />
<path d="M24.5371 6.6269
L24.6133 6.5889
" />
<path d="M25.7562 7.3889
L25.4895 7.0079
" />
<path d="M25.2990 7.3889
L25.2990 6.5889
" />
<path d="M25.2990 6.5889
L25.6038 6.5889
" />
<path d="M25.6038 6.5889
L25.6800 6.6269
" />
<path d="M25.6800 6.6269
L25.7181 6.6650
" />
<path d="M25.7181 6.6650
L25.7562 6.7412
" />
<path d="M25.7562 6.7412
L25.7562 6.8555
" />
<path d="M25.7562 6.8555
L25.7181 6.9317
" />
<path d="M25.7181 6.9317
L25.6800 6.9698
" />
<path d="M25.6800 6.9698
L25.6038 7.0079
" />
<path d="M25.6038 7.0079
L25.2990 7.0079
" />
<path d="M26.0990 7.0841
L26.7086 7.0841
" />
<path d="M27.3562 6.9698
L27.0895 6.9698
" />
<path d="M27.0895 7.3889
L27.0895 6.5889
" />
<path d="M27.0895 6.5889
L27.4705 6.5889
" />
<path d="M27.7371 7.1603
L28.1181 7.1603
" />
<path d="M27.6610 7.3889
L27.9276 6.5889
" />
<path d="M27.9276 6.5889
L28.1943 7.3889
" />
<path d="M28.7276 6.9698
L28.8419 7.0079
" />
<path d="M28.8419 7.0079
L28.8800 7.0460
" />
<path d="M28.8800 7.0460
L28.9181 7.1222
" />
<path d="M28.9181 7.1222
L28.9181 7.2365
" />
<path d="M28.9181 7.2365
L28.8800 7.3127
" />
<path d="M28.8800 7.3127
L28.8419 7.3508
" />
<path d="M28.8419 7.3508
L28.7657 7.3889
" />
<path d="M28.7657 7.3889
L28.4610 7.3889
" />
<path d="M28.4610 7.3889
L28.4610 6.5889
" />
<path d="M28.4610 6.5889
L28.7276 6.5889
" />
<path d="M28.7276 6.5889
L28.8038 6.6269
" />
<path d="M28.8038 6.6269
L28.8419 6.6650
" />
<path d="M28.8419 6.6650
L28.8800 6.7412
" />
<path d="M28.8800 6.7412
L28.8800 6.8174
" />
<path d="M28.8800 6.8174
L28.8419 6.8936
" />
<path d="M28.8419 6.8936
L28.8038 6.9317
" />
<path d="M28.8038 6.9317
L28.7276 6.9698
" />
<path d="M28.7276 6.9698
L28.4610 6.9698
" />
</g><text x="19.0133" y="3.4250"
textLength="13.3429" font-size="1.0667" lengthAdjust="spacingAndGlyphs"
text-anchor="middle" opacity="0" stroke-opacity="0">ANTENNA KEEP CLEAR</text>
<g class="stroked-text"><desc>ANTENNA KEEP CLEAR</desc>
<path d="M12.5943 3.1603
L12.9752 3.1603
" />
<path d="M12.5181 3.3889
L12.7848 2.5889
" />
<path d="M12.7848 2.5889
L13.0514 3.3889
" />
<path d="M13.3181 3.3889
L13.3181 2.5889
" />
<path d="M13.3181 2.5889
L13.7752 3.3889
" />
<path d="M13.7752 3.3889
L13.7752 2.5889
" />
<path d="M14.0419 2.5889
L14.4990 2.5889
" />
<path d="M14.2705 3.3889
L14.2705 2.5889
" />
<path d="M14.7657 2.9698
L15.0324 2.9698
" />
<path d="M15.1467 3.3889
L14.7657 3.3889
" />
<path d="M14.7657 3.3889
L14.7657 2.5889
" />
<path d="M14.7657 2.5889
L15.1467 2.5889
" />
<path d="M15.4895 3.3889
L15.4895 2.5889
" />
<path d="M15.4895 2.5889
L15.9467 3.3889
" />
<path d="M15.9467 3.3889
L15.9467 2.5889
" />
<path d="M16.3276 3.3889
L16.3276 2.5889
" />
<path d="M16.3276 2.5889
L16.7848 3.3889
" />
<path d="M16.7848 3.3889
L16.7848 2.5889
" />
<path d="M17.1276 3.1603
L17.5086 3.1603
" />
<path d="M17.0514 3.3889
L17.3181 2.5889
" />
<path d="M17.3181 2.5889
L17.5848 3.3889
" />
<path d="M18.4610 3.3889
L18.4610 2.5889
" />
<path d="M18.9181 3.3889
L18.5752 2.9317
" />
<path d="M18.9181 2.5889
L18.4610 3.0460
" />
<path d="M19.2610 2.9698
L19.5276 2.9698
" />
<path d="M19.6419 3.3889
L19.2610 3.3889
" />
<path d="M19.2610 3.3889
L19.2610 2.5889
" />
<path d="M19.2610 2.5889
L19.6419 2.5889
" />
<path d="M19.9848 2.9698
L20.2514 2.9698
" />
<path d="M20.3657 3.3889
L19.9848 3.3889
" />
<path d="M19.9848 3.3889
L19.9848 2.5889
" />
<path d="M19.9848 2.5889
L20.3657 2.5889
" />
<path d="M20.7086 3.3889
L20.7086 2.5889
" />
<path d="M20.7086 2.5889
L21.0133 2.5889
" />
<path d="M21.0133 2.5889
L21.0895 2.6269
" />
<path d="M21.0895 2.6269
L21.1276 2.6650
" />
<path d="M21.1276 2.6650
L21.1657 2.7412
" />
<path d="M21.1657 2.7412
L21.1657 2.8555
" />
<path d="M21.1657 2.8555
L21.1276 2.9317
" />
<path d="M21.1276 2.9317
L21.0895 2.9698
" />
<path d="M21.0895 2.9698
L21.0133 3.0079
" />
<path d="M21.0133 3.0079
L20.7086 3.0079
" />
<path d="M22.5752 3.3127
L22.5371 3.3508
" />
<path d="M22.5371 3.3508
L22.4229 3.3889
" />
<path d="M22.4229 3.3889
L22.3467 3.3889
" />
<path d="M22.3467 3.3889
L22.2324 3.3508
" />
<path d="M22.2324 3.3508
L22.1562 3.2746
" />
<path d="M22.1562 3.2746
L22.1181 3.1984
" />
<path d="M22.1181 3.1984
L22.0800 3.0460
" />
<path d="M22.0800 3.0460
L22.0800 2.9317
" />
<path d="M22.0800 2.9317
L22.1181 2.7793
" />
<path d="M22.1181 2.7793
L22.1562 2.7031
" />
<path d="M22.1562 2.7031
L22.2324 2.6269
" />
<path d="M22.2324 2.6269
L22.3467 2.5889
" />
<path d="M22.3467 2.5889
L22.4229 2.5889
" />
<path d="M22.4229 2.5889
L22.5371 2.6269
" />
<path d="M22.5371 2.6269
L22.5752 2.6650
" />
<path d="M23.2990 3.3889
L22.9181 3.3889
" />
<path d="M22.9181 3.3889
L22.9181 2.5889
" />
<path d="M23.5657 2.9698
L23.8324 2.9698
" />
<path d="M23.9467 3.3889
L23.5657 3.3889
" />
<path d="M23.5657 3.3889
L23.5657 2.5889
" />
<path d="M23.5657 2.5889
L23.9467 2.5889
" />
<path d="M24.2514 3.1603
L24.6324 3.1603
" />
<path d="M24.1752 3.3889
L24.4419 2.5889
" />
<path d="M24.4419 2.5889
L24.7086 3.3889
" />
<path d="M25.4324 3.3889
L25.1657 3.0079
" />
<path d="M24.9752 3.3889
L24.9752 2.5889
" />
<path d="M24.9752 2.5889
L25.2800 2.5889
" />
<path d="M25.2800 2.5889
L25.3562 2.6269
" />
<path d="M25.3562 2.6269
L25.3943 2.6650
" />
<path d="M25.3943 2.6650
L25.4324 2.7412
" />
<path d="M25.4324 2.7412
L25.4324 2.8555
" />
<path d="M25.4324 2.8555
L25.3943 2.9317
" />
<path d="M25.3943 2.9317
L25.3562 2.9698
" />
<path d="M25.3562 2.9698
L25.2800 3.0079
" />
<path d="M25.2800 3.0079
L24.9752 3.0079
" />
</g><text x="7.5833" y="8.4250"
textLength="1.5714" font-size="1.0667" lengthAdjust="spacingAndGlyphs"
text-anchor="middle" opacity="0" stroke-opacity="0">J1</text>
<g class="stroked-text"><desc>J1</desc>
<path d="M7.3167 7.5889
L7.3167 8.1603
" />
<path d="M7.3167 8.1603
L7.2786 8.2746
" />
<path d="M7.2786 8.2746
L7.2024 8.3508
" />
<path d="M7.2024 8.3508
L7.0881 8.3889
" />
<path d="M7.0881 8.3889
L7.0119 8.3889
" />
<path d="M8.1167 8.3889
L7.6595 8.3889
" />
<path d="M7.8881 8.3889
L7.8881 7.5889
" />
<path d="M7.8881 7.5889
L7.8119 7.7031
" />
<path d="M7.8119 7.7031
L7.7357 7.7793
" />
<path d="M7.7357 7.7793
L7.6595 7.8174
" />
</g><text x="30.4433" y="8.4250"
textLength="1.5714" font-size="1.0667" lengthAdjust="spacingAndGlyphs"
text-anchor="middle" opacity="0" stroke-opacity="0">J3</text>
<g class="stroked-text"><desc>J3</desc>
<path d="M30.1767 7.5889
L30.1767 8.1603
" />
<path d="M30.1767 8.1603
L30.1386 8.2746
" />
<path d="M30.1386 8.2746
L30.0624 8.3508
" />
<path d="M30.0624 8.3508
L29.9481 8.3889
" />
<path d="M29.9481 8.3889
L29.8719 8.3889
" />
<path d="M30.4814 7.5889
L30.9767 7.5889
" />
<path d="M30.9767 7.5889
L30.7100 7.8936
" />
<path d="M30.7100 7.8936
L30.8243 7.8936
" />
<path d="M30.8243 7.8936
L30.9005 7.9317
" />
<path d="M30.9005 7.9317
L30.9386 7.9698
" />
<path d="M30.9386 7.9698
L30.9767 8.0460
" />
<path d="M30.9767 8.0460
L30.9767 8.2365
" />
<path d="M30.9767 8.2365
L30.9386 8.3127
" />
<path d="M30.9386 8.3127
L30.9005 8.3508
" />
<path d="M30.9005 8.3508
L30.8243 8.3889
" />
<path d="M30.8243 8.3889
L30.5957 8.3889
" />
<path d="M30.5957 8.3889
L30.5195 8.3508
" />
<path d="M30.5195 8.3508
L30.4814 8.3127
" />
</g><text x="15.0133" y="16.4250"
textLength="1.7619" font-size="1.0667" lengthAdjust="spacingAndGlyphs"
text-anchor="middle" opacity="0" stroke-opacity="0">R1</text>
<g class="stroked-text"><desc>R1</desc>
<path d="M14.8800 16.3889
L14.6133 16.0079
" />
<path d="M14.4229 16.3889
L14.4229 15.5889
" />
<path d="M14.4229 15.5889
L14.7276 15.5889
" />
<path d="M14.7276 15.5889
L14.8038 15.6269
" />
<path d="M14.8038 15.6269
L14.8419 15.6650
" />
<path d="M14.8419 15.6650
L14.8800 15.7412
" />
<path d="M14.8800 15.7412
L14.8800 15.8555
" />
<path d="M14.8800 15.8555
L14.8419 15.9317
" />
<path d="M14.8419 15.9317
L14.8038 15.9698
" />
<path d="M14.8038 15.9698
L14.7276 16.0079
" />
<path d="M14.7276 16.0079
L14.4229 16.0079
" />
<path d="M15.6419 16.3889
L15.1848 16.3889
" />
<path d="M15.4133 16.3889
L15.4133 15.5889
" />
<path d="M15.4133 15.5889
L15.3371 15.7031
" />
<path d="M15.3371 15.7031
L15.2610 15.7793
" />
<path d="M15.2610 15.7793
L15.1848 15.8174
" />
</g><text x="15.0133" y="21.4250"
textLength="1.7619" font-size="1.0667" lengthAdjust="spacingAndGlyphs"
text-anchor="middle" opacity="0" stroke-opacity="0">R2</text>
<g class="stroked-text"><desc>R2</desc>
<path d="M14.8800 21.3889
L14.6133 21.0079
" />
<path d="M14.4229 21.3889
L14.4229 20.5889
" />
<path d="M14.4229 20.5889
L14.7276 20.5889
" />
<path d="M14.7276 20.5889
L14.8038 20.6270
" />
<path d="M14.8038 20.6270
L14.8419 20.6650
" />
<path d="M14.8419 20.6650
L14.8800 20.7412
" />
<path d="M14.8800 20.7412
L14.8800 20.8555
" />
<path d="M14.8800 20.8555
L14.8419 20.9317
" />
<path d="M14.8419 20.9317
L14.8038 20.9698
" />
<path d="M14.8038 20.9698
L14.7276 21.0079
" />
<path d="M14.7276 21.0079
L14.4229 21.0079
" />
<path d="M15.1848 20.6650
L15.2229 20.6270
" />
<path d="M15.2229 20.6270
L15.2990 20.5889
" />
<path d="M15.2990 20.5889
L15.4895 20.5889
" />
<path d="M15.4895 20.5889
L15.5657 20.6270
" />
<path d="M15.5657 20.6270
L15.6038 20.6650
" />
<path d="M15.6038 20.6650
L15.6419 20.7412
" />
<path d="M15.6419 20.7412
L15.6419 20.8174
" />
<path d="M15.6419 20.8174
L15.6038 20.9317
" />
<path d="M15.6038 20.9317
L15.1467 21.3889
" />
<path d="M15.1467 21.3889
L15.6419 21.3889
" />
</g><text x="15.0133" y="26.4250"
textLength="1.7619" font-size="1.0667" lengthAdjust="spacingAndGlyphs"
text-anchor="middle" opacity="0" stroke-opacity="0">R3</text>
<g class="stroked-text"><desc>R3</desc>
<path d="M14.8800 26.3889
L14.6133 26.0079
" />
<path d="M14.4229 26.3889
L14.4229 25.5889
" />
<path d="M14.4229 25.5889
L14.7276 25.5889
" />
<path d="M14.7276 25.5889
L14.8038 25.6269
" />
<path d="M14.8038 25.6269
L14.8419 25.6650
" />
<path d="M14.8419 25.6650
L14.8800 25.7412
" />
<path d="M14.8800 25.7412
L14.8800 25.8555
" />
<path d="M14.8800 25.8555
L14.8419 25.9317
" />
<path d="M14.8419 25.9317
L14.8038 25.9698
" />
<path d="M14.8038 25.9698
L14.7276 26.0079
" />
<path d="M14.7276 26.0079
L14.4229 26.0079
" />
<path d="M15.1467 25.5889
L15.6419 25.5889
" />
<path d="M15.6419 25.5889
L15.3752 25.8936
" />
<path d="M15.3752 25.8936
L15.4895 25.8936
" />
<path d="M15.4895 25.8936
L15.5657 25.9317
" />
<path d="M15.5657 25.9317
L15.6038 25.9698
" />
<path d="M15.6038 25.9698
L15.6419 26.0460
" />
<path d="M15.6419 26.0460
L15.6419 26.2365
" />
<path d="M15.6419 26.2365
L15.6038 26.3127
" />
<path d="M15.6038 26.3127
L15.5657 26.3508
" />
<path d="M15.5657 26.3508
L15.4895 26.3889
" />
<path d="M15.4895 26.3889
L15.2610 26.3889
" />
<path d="M15.2610 26.3889
L15.1848 26.3508
" />
<path d="M15.1848 26.3508
L15.1467 26.3127
" />
</g><text x="15.0133" y="31.4250"
textLength="1.7619" font-size="1.0667" lengthAdjust="spacingAndGlyphs"
text-anchor="middle" opacity="0" stroke-opacity="0">R4</text>
<g class="stroked-text"><desc>R4</desc>
<path d="M14.8800 31.3889
L14.6133 31.0079
" />
<path d="M14.4229 31.3889
L14.4229 30.5889
" />
<path d="M14.4229 30.5889
L14.7276 30.5889
" />
<path d="M14.7276 30.5889
L14.8038 30.6269
" />
<path d="M14.8038 30.6269
L14.8419 30.6650
" />
<path d="M14.8419 30.6650
L14.8800 30.7412
" />
<path d="M14.8800 30.7412
L14.8800 30.8555
" />
<path d="M14.8800 30.8555
L14.8419 30.9317
" />
<path d="M14.8419 30.9317
L14.8038 30.9698
" />
<path d="M14.8038 30.9698
L14.7276 31.0079
" />
<path d="M14.7276 31.0079
L14.4229 31.0079
" />
<path d="M15.5657 30.8555
L15.5657 31.3889
" />
<path d="M15.3752 30.5508
L15.1848 31.1222
" />
<path d="M15.1848 31.1222
L15.6800 31.1222
" />
</g><text x="19.0133" y="37.4250"
textLength="1.7619" font-size="1.0667" lengthAdjust="spacingAndGlyphs"
text-anchor="middle" opacity="0" stroke-opacity="0">R5</text>
<g class="stroked-text"><desc>R5</desc>
<path d="M18.8800 37.3889
L18.6133 37.0079
" />
<path d="M18.4229 37.3889
L18.4229 36.5889
" />
<path d="M18.4229 36.5889
L18.7276 36.5889
" />
<path d="M18.7276 36.5889
L18.8038 36.6270
" />
<path d="M18.8038 36.6270
L18.8419 36.6650
" />
<path d="M18.8419 36.6650
L18.8800 36.7412
" />
<path d="M18.8800 36.7412
L18.8800 36.8555
" />
<path d="M18.8800 36.8555
L18.8419 36.9317
" />
<path d="M18.8419 36.9317
L18.8038 36.9698
" />
<path d="M18.8038 36.9698
L18.7276 37.0079
" />
<path d="M18.7276 37.0079
L18.4229 37.0079
" />
<path d="M19.6038 36.5889
L19.2229 36.5889
" />
<path d="M19.2229 36.5889
L19.1848 36.9698
" />
<path d="M19.1848 36.9698
L19.2229 36.9317
" />
<path d="M19.2229 36.9317
L19.2990 36.8936
" />
<path d="M19.2990 36.8936
L19.4895 36.8936
" />
<path d="M19.4895 36.8936
L19.5657 36.9317
" />
<path d="M19.5657 36.9317
L19.6038 36.9698
" />
<path d="M19.6038 36.9698
L19.6419 37.0460
" />
<path d="M19.6419 37.0460
L19.6419 37.2365
" />
<path d="M19.6419 37.2365
L19.6038 37.3127
" />
<path d="M19.6038 37.3127
L19.5657 37.3508
" />
<path d="M19.5657 37.3508
L19.4895 37.3889
" />
<path d="M19.4895 37.3889
L19.2990 37.3889
" />
<path d="M19.2990 37.3889
L19.2229 37.3508
" />
<path d="M19.2229 37.3508
L19.1848 37.3127
" />
</g><text x="19.0133" y="42.4250"
textLength="1.7619" font-size="1.0667" lengthAdjust="spacingAndGlyphs"
text-anchor="middle" opacity="0" stroke-opacity="0">R6</text>
<g class="stroked-text"><desc>R6</desc>
<path d="M18.8800 42.3889
L18.6133 42.0079
" />
<path d="M18.4229 42.3889
L18.4229 41.5889
" />
<path d="M18.4229 41.5889
L18.7276 41.5889
" />
<path d="M18.7276 41.5889
L18.8038 41.6270
" />
<path d="M18.8038 41.6270
L18.8419 41.6650
" />
<path d="M18.8419 41.6650
L18.8800 41.7412
" />
<path d="M18.8800 41.7412
L18.8800 41.8555
" />
<path d="M18.8800 41.8555
L18.8419 41.9317
" />
<path d="M18.8419 41.9317
L18.8038 41.9698
" />
<path d="M18.8038 41.9698
L18.7276 42.0079
" />
<path d="M18.7276 42.0079
L18.4229 42.0079
" />
<path d="M19.5657 41.5889
L19.4133 41.5889
" />
<path d="M19.4133 41.5889
L19.3371 41.6270
" />
<path d="M19.3371 41.6270
L19.2990 41.6650
" />
<path d="M19.2990 41.6650
L19.2229 41.7793
" />
<path d="M19.2229 41.7793
L19.1848 41.9317
" />
<path d="M19.1848 41.9317
L19.1848 42.2365
" />
<path d="M19.1848 42.2365
L19.2229 42.3127
" />
<path d="M19.2229 42.3127
L19.2610 42.3508
" />
<path d="M19.2610 42.3508
L19.3371 42.3889
" />
<path d="M19.3371 42.3889
L19.4895 42.3889
" />
<path d="M19.4895 42.3889
L19.5657 42.3508
" />
<path d="M19.5657 42.3508
L19.6038 42.3127
" />
<path d="M19.6038 42.3127
L19.6419 42.2365
" />
<path d="M19.6419 42.2365
L19.6419 42.0460
" />
<path d="M19.6419 42.0460
L19.6038 41.9698
" />
<path d="M19.6038 41.9698
L19.5657 41.9317
" />
<path d="M19.5657 41.9317
L19.4895 41.8936
" />
<path d="M19.4895 41.8936
L19.3371 41.8936
" />
<path d="M19.3371 41.8936
L19.2610 41.9317
" />
<path d="M19.2610 41.9317
L19.2229 41.9698
" />
<path d="M19.2229 41.9698
L19.1848 42.0460
" />
</g><text x="15.0133" y="47.4250"
textLength="1.7619" font-size="1.0667" lengthAdjust="spacingAndGlyphs"
text-anchor="middle" opacity="0" stroke-opacity="0">R7</text>
<g class="stroked-text"><desc>R7</desc>
<path d="M14.8800 47.3889
L14.6133 47.0079
" />
<path d="M14.4229 47.3889
L14.4229 46.5889
" />
<path d="M14.4229 46.5889
L14.7276 46.5889
" />
<path d="M14.7276 46.5889
L14.8038 46.6270
" />
<path d="M14.8038 46.6270
L14.8419 46.6650
" />
<path d="M14.8419 46.6650
L14.8800 46.7412
" />
<path d="M14.8800 46.7412
L14.8800 46.8555
" />
<path d="M14.8800 46.8555
L14.8419 46.9317
" />
<path d="M14.8419 46.9317
L14.8038 46.9698
" />
<path d="M14.8038 46.9698
L14.7276 47.0079
" />
<path d="M14.7276 47.0079
L14.4229 47.0079
" />
<path d="M15.1467 46.5889
L15.6800 46.5889
" />
<path d="M15.6800 46.5889
L15.3371 47.3889
" />
</g><text x="24.0133" y="16.4250"
textLength="1.7619" font-size="1.0667" lengthAdjust="spacingAndGlyphs"
text-anchor="middle" opacity="0" stroke-opacity="0">C1</text>
<g class="stroked-text"><desc>C1</desc>
<path d="M23.8800 16.3127
L23.8419 16.3508
" />
<path d="M23.8419 16.3508
L23.7276 16.3889
" />
<path d="M23.7276 16.3889
L23.6514 16.3889
" />
<path d="M23.6514 16.3889
L23.5371 16.3508
" />
<path d="M23.5371 16.3508
L23.4610 16.2746
" />
<path d="M23.4610 16.2746
L23.4229 16.1984
" />
<path d="M23.4229 16.1984
L23.3848 16.0460
" />
<path d="M23.3848 16.0460
L23.3848 15.9317
" />
<path d="M23.3848 15.9317
L23.4229 15.7793
" />
<path d="M23.4229 15.7793
L23.4610 15.7031
" />
<path d="M23.4610 15.7031
L23.5371 15.6269
" />
<path d="M23.5371 15.6269
L23.6514 15.5889
" />
<path d="M23.6514 15.5889
L23.7276 15.5889
" />
<path d="M23.7276 15.5889
L23.8419 15.6269
" />
<path d="M23.8419 15.6269
L23.8800 15.6650
" />
<path d="M24.6419 16.3889
L24.1848 16.3889
" />
<path d="M24.4133 16.3889
L24.4133 15.5889
" />
<path d="M24.4133 15.5889
L24.3371 15.7031
" />
<path d="M24.3371 15.7031
L24.2610 15.7793
" />
<path d="M24.2610 15.7793
L24.1848 15.8174
" />
</g><text x="24.0133" y="22.4250"
textLength="1.7619" font-size="1.0667" lengthAdjust="spacingAndGlyphs"
text-anchor="middle" opacity="0" stroke-opacity="0">C2</text>
<g class="stroked-text"><desc>C2</desc>
<path d="M23.8800 22.3127
L23.8419 22.3508
" />
<path d="M23.8419 22.3508
L23.7276 22.3889
" />
<path d="M23.7276 22.3889
L23.6514 22.3889
" />
<path d="M23.6514 22.3889
L23.5371 22.3508
" />
<path d="M23.5371 22.3508
L23.4610 22.2746
" />
<path d="M23.4610 22.2746
L23.4229 22.1984
" />
<path d="M23.4229 22.1984
L23.3848 22.0460
" />
<path d="M23.3848 22.0460
L23.3848 21.9317
" />
<path d="M23.3848 21.9317
L23.4229 21.7793
" />
<path d="M23.4229 21.7793
L23.4610 21.7031
" />
<path d="M23.4610 21.7031
L23.5371 21.6270
" />
<path d="M23.5371 21.6270
L23.6514 21.5889
" />
<path d="M23.6514 21.5889
L23.7276 21.5889
" />
<path d="M23.7276 21.5889
L23.8419 21.6270
" />
<path d="M23.8419 21.6270
L23.8800 21.6650
" />
<path d="M24.1848 21.6650
L24.2229 21.6270
" />
<path d="M24.2229 21.6270
L24.2990 21.5889
" />
<path d="M24.2990 21.5889
L24.4895 21.5889
" />
<path d="M24.4895 21.5889
L24.5657 21.6270
" />
<path d="M24.5657 21.6270
L24.6038 21.6650
" />
<path d="M24.6038 21.6650
L24.6419 21.7412
" />
<path d="M24.6419 21.7412
L24.6419 21.8174
" />
<path d="M24.6419 21.8174
L24.6038 21.9317
" />
<path d="M24.6038 21.9317
L24.1467 22.3889
" />
<path d="M24.1467 22.3889
L24.6419 22.3889
" />
</g><text x="24.0133" y="28.4250"
textLength="1.7619" font-size="1.0667" lengthAdjust="spacingAndGlyphs"
text-anchor="middle" opacity="0" stroke-opacity="0">C3</text>
<g class="stroked-text"><desc>C3</desc>
<path d="M23.8800 28.3127
L23.8419 28.3508
" />
<path d="M23.8419 28.3508
L23.7276 28.3889
" />
<path d="M23.7276 28.3889
L23.6514 28.3889
" />
<path d="M23.6514 28.3889
L23.5371 28.3508
" />
<path d="M23.5371 28.3508
L23.4610 28.2746
" />
<path d="M23.4610 28.2746
L23.4229 28.1984
" />
<path d="M23.4229 28.1984
L23.3848 28.0460
" />
<path d="M23.3848 28.0460
L23.3848 27.9317
" />
<path d="M23.3848 27.9317
L23.4229 27.7793
" />
<path d="M23.4229 27.7793
L23.4610 27.7031
" />
<path d="M23.4610 27.7031
L23.5371 27.6269
" />
<path d="M23.5371 27.6269
L23.6514 27.5889
" />
<path d="M23.6514 27.5889
L23.7276 27.5889
" />
<path d="M23.7276 27.5889
L23.8419 27.6269
" />
<path d="M23.8419 27.6269
L23.8800 27.6650
" />
<path d="M24.1467 27.5889
L24.6419 27.5889
" />
<path d="M24.6419 27.5889
L24.3752 27.8936
" />
<path d="M24.3752 27.8936
L24.4895 27.8936
" />
<path d="M24.4895 27.8936
L24.5657 27.9317
" />
<path d="M24.5657 27.9317
L24.6038 27.9698
" />
<path d="M24.6038 27.9698
L24.6419 28.0460
" />
<path d="M24.6419 28.0460
L24.6419 28.2365
" />
<path d="M24.6419 28.2365
L24.6038 28.3127
" />
<path d="M24.6038 28.3127
L24.5657 28.3508
" />
<path d="M24.5657 28.3508
L24.4895 28.3889
" />
<path d="M24.4895 28.3889
L24.2610 28.3889
" />
<path d="M24.2610 28.3889
L24.1848 28.3508
" />
<path d="M24.1848 28.3508
L24.1467 28.3127
" />
</g><text x="24.0133" y="48.4250"
textLength="1.7619" font-size="1.0667" lengthAdjust="spacingAndGlyphs"
text-anchor="middle" opacity="0" stroke-opacity="0">D1</text>
<g class="stroked-text"><desc>D1</desc>
<path d="M23.4229 48.3889
L23.4229 47.5889
" />
<path d="M23.4229 47.5889
L23.6133 47.5889
" />
<path d="M23.6133 47.5889
L23.7276 47.6270
" />
<path d="M23.7276 47.6270
L23.8038 47.7031
" />
<path d="M23.8038 47.7031
L23.8419 47.7793
" />
<path d="M23.8419 47.7793
L23.8800 47.9317
" />
<path d="M23.8800 47.9317
L23.8800 48.0460
" />
<path d="M23.8800 48.0460
L23.8419 48.1984
" />
<path d="M23.8419 48.1984
L23.8038 48.2746
" />
<path d="M23.8038 48.2746
L23.7276 48.3508
" />
<path d="M23.7276 48.3508
L23.6133 48.3889
" />
<path d="M23.6133 48.3889
L23.4229 48.3889
" />
<path d="M24.6419 48.3889
L24.1848 48.3889
" />
<path d="M24.4133 48.3889
L24.4133 47.5889
" />
<path d="M24.4133 47.5889
L24.3371 47.7031
" />
<path d="M24.3371 47.7031
L24.2610 47.7793
" />
<path d="M24.2610 47.7793
L24.1848 47.8174
" />
</g><text x="13.0133" y="56.4250"
textLength="1.5714" font-size="1.0667" lengthAdjust="spacingAndGlyphs"
text-anchor="middle" opacity="0" stroke-opacity="0">J4</text>
<g class="stroked-text"><desc>J4</desc>
<path d="M12.7467 55.5889
L12.7467 56.1603
" />
<path d="M12.7467 56.1603
L12.7086 56.2746
" />
<path d="M12.7086 56.2746
L12.6324 56.3508
" />
<path d="M12.6324 56.3508
L12.5181 56.3889
" />
<path d="M12.5181 56.3889
L12.4419 56.3889
" />
<path d="M13.4705 55.8555
L13.4705 56.3889
" />
<path d="M13.2800 55.5508
L13.0895 56.1222
" />
<path d="M13.0895 56.1222
L13.5848 56.1222
" />
</g><text x="12.0133" y="63.9250"
textLength="1.5714" font-size="1.0667" lengthAdjust="spacingAndGlyphs"
text-anchor="middle" opacity="0" stroke-opacity="0">J5</text>
<g class="stroked-text"><desc>J5</desc>
<path d="M11.7467 63.0889
L11.7467 63.6603
" />
<path d="M11.7467 63.6603
L11.7086 63.7746
" />
<path d="M11.7086 63.7746
L11.6324 63.8508
" />
<path d="M11.6324 63.8508
L11.5181 63.8889
" />
<path d="M11.5181 63.8889
L11.4419 63.8889
" />
<path d="M12.5086 63.0889
L12.1276 63.0889
" />
<path d="M12.1276 63.0889
L12.0895 63.4698
" />
<path d="M12.0895 63.4698
L12.1276 63.4317
" />
<path d="M12.1276 63.4317
L12.2038 63.3936
" />
<path d="M12.2038 63.3936
L12.3943 63.3936
" />
<path d="M12.3943 63.3936
L12.4705 63.4317
" />
<path d="M12.4705 63.4317
L12.5086 63.4698
" />
<path d="M12.5086 63.4698
L12.5467 63.5460
" />
<path d="M12.5467 63.5460
L12.5467 63.7365
" />
<path d="M12.5467 63.7365
L12.5086 63.8127
" />
<path d="M12.5086 63.8127
L12.4705 63.8508
" />
<path d="M12.4705 63.8508
L12.3943 63.8889
" />
<path d="M12.3943 63.8889
L12.2038 63.8889
" />
<path d="M12.2038 63.8889
L12.1276 63.8508
" />
<path d="M12.1276 63.8508
L12.0895 63.8127
" />
</g><text x="24.0133" y="53.4250"
textLength="1.5714" font-size="1.0667" lengthAdjust="spacingAndGlyphs"
text-anchor="middle" opacity="0" stroke-opacity="0">J6</text>
<g class="stroked-text"><desc>J6</desc>
<path d="M23.7467 52.5889
L23.7467 53.1603
" />
<path d="M23.7467 53.1603
L23.7086 53.2746
" />
<path d="M23.7086 53.2746
L23.6324 53.3508
" />
<path d="M23.6324 53.3508
L23.5181 53.3889
" />
<path d="M23.5181 53.3889
L23.4419 53.3889
" />
<path d="M24.4705 52.5889
L24.3181 52.5889
" />
<path d="M24.3181 52.5889
L24.2419 52.6270
" />
<path d="M24.2419 52.6270
L24.2038 52.6650
" />
<path d="M24.2038 52.6650
L24.1276 52.7793
" />
<path d="M24.1276 52.7793
L24.0895 52.9317
" />
<path d="M24.0895 52.9317
L24.0895 53.2365
" />
<path d="M24.0895 53.2365
L24.1276 53.3127
" />
<path d="M24.1276 53.3127
L24.1657 53.3508
" />
<path d="M24.1657 53.3508
L24.2419 53.3889
" />
<path d="M24.2419 53.3889
L24.3943 53.3889
" />
<path d="M24.3943 53.3889
L24.4705 53.3508
" />
<path d="M24.4705 53.3508
L24.5086 53.3127
" />
<path d="M24.5086 53.3127
L24.5467 53.2365
" />
<path d="M24.5467 53.2365
L24.5467 53.0460
" />
<path d="M24.5467 53.0460
L24.5086 52.9698
" />
<path d="M24.5086 52.9698
L24.4705 52.9317
" />
<path d="M24.4705 52.9317
L24.3943 52.8936
" />
<path d="M24.3943 52.8936
L24.2419 52.8936
" />
<path d="M24.2419 52.8936
L24.1657 52.9317
" />
<path d="M24.1657 52.9317
L24.1276 52.9698
" />
<path d="M24.1276 52.9698
L24.0895 53.0460
" />
</g><text x="11.0133" y="69.4250"
textLength="1.5714" font-size="1.0667" lengthAdjust="spacingAndGlyphs"
text-anchor="middle" opacity="0" stroke-opacity="0">J7</text>
<g class="stroked-text"><desc>J7</desc>
<path d="M10.7467 68.5889
L10.7467 69.1603
" />
<path d="M10.7467 69.1603
L10.7086 69.2746
" />
<path d="M10.7086 69.2746
L10.6324 69.3508
" />
<path d="M10.6324 69.3508
L10.5181 69.3889
" />
<path d="M10.5181 69.3889
L10.4419 69.3889
" />
<path d="M11.0514 68.5889
L11.5848 68.5889
" />
<path d="M11.5848 68.5889
L11.2419 69.3889
" />
</g><text x="4.0133" y="1.4250"
textLength="1.8000" font-size="1.0667" lengthAdjust="spacingAndGlyphs"
text-anchor="middle" opacity="0" stroke-opacity="0">H1</text>
<g class="stroked-text"><desc>H1</desc>
<path d="M3.4038 1.3889
L3.4038 0.5889
" />
<path d="M3.4038 0.9698
L3.8610 0.9698
" />
<path d="M3.8610 1.3889
L3.8610 0.5889
" />
<path d="M4.6610 1.3889
L4.2038 1.3889
" />
<path d="M4.4324 1.3889
L4.4324 0.5889
" />
<path d="M4.4324 0.5889
L4.3562 0.7031
" />
<path d="M4.3562 0.7031
L4.2800 0.7793
" />
<path d="M4.2800 0.7793
L4.2038 0.8174
" />
</g><text x="34.0133" y="1.4250"
textLength="1.8000" font-size="1.0667" lengthAdjust="spacingAndGlyphs"
text-anchor="middle" opacity="0" stroke-opacity="0">H2</text>
<g class="stroked-text"><desc>H2</desc>
<path d="M33.4038 1.3889
L33.4038 0.5889
" />
<path d="M33.4038 0.9698
L33.8610 0.9698
" />
<path d="M33.8610 1.3889
L33.8610 0.5889
" />
<path d="M34.2038 0.6650
L34.2419 0.6270
" />
<path d="M34.2419 0.6270
L34.3181 0.5889
" />
<path d="M34.3181 0.5889
L34.5086 0.5889
" />
<path d="M34.5086 0.5889
L34.5848 0.6270
" />
<path d="M34.5848 0.6270
L34.6229 0.6650
" />
<path d="M34.6229 0.6650
L34.6610 0.7412
" />
<path d="M34.6610 0.7412
L34.6610 0.8174
" />
<path d="M34.6610 0.8174
L34.6229 0.9317
" />
<path d="M34.6229 0.9317
L34.1657 1.3889
" />
<path d="M34.1657 1.3889
L34.6610 1.3889
" />
</g><text x="4.0133" y="69.4250"
textLength="1.8000" font-size="1.0667" lengthAdjust="spacingAndGlyphs"
text-anchor="middle" opacity="0" stroke-opacity="0">H3</text>
<g class="stroked-text"><desc>H3</desc>
<path d="M3.4038 69.3889
L3.4038 68.5889
" />
<path d="M3.4038 68.9698
L3.8610 68.9698
" />
<path d="M3.8610 69.3889
L3.8610 68.5889
" />
<path d="M4.1657 68.5889
L4.6610 68.5889
" />
<path d="M4.6610 68.5889
L4.3943 68.8936
" />
<path d="M4.3943 68.8936
L4.5086 68.8936
" />
<path d="M4.5086 68.8936
L4.5848 68.9317
" />
<path d="M4.5848 68.9317
L4.6229 68.9698
" />
<path d="M4.6229 68.9698
L4.6610 69.0460
" />
<path d="M4.6610 69.0460
L4.6610 69.2365
" />
<path d="M4.6610 69.2365
L4.6229 69.3127
" />
<path d="M4.6229 69.3127
L4.5848 69.3508
" />
<path d="M4.5848 69.3508
L4.5086 69.3889
" />
<path d="M4.5086 69.3889
L4.2800 69.3889
" />
<path d="M4.2800 69.3889
L4.2038 69.3508
" />
<path d="M4.2038 69.3508
L4.1657 69.3127
" />
</g><text x="34.0133" y="69.4250"
textLength="1.8000" font-size="1.0667" lengthAdjust="spacingAndGlyphs"
text-anchor="middle" opacity="0" stroke-opacity="0">H4</text>
<g class="stroked-text"><desc>H4</desc>
<path d="M33.4038 69.3889
L33.4038 68.5889
" />
<path d="M33.4038 68.9698
L33.8610 68.9698
" />
<path d="M33.8610 69.3889
L33.8610 68.5889
" />
<path d="M34.5848 68.8555
L34.5848 69.3889
" />
<path d="M34.3943 68.5508
L34.2038 69.1222
" />
<path d="M34.2038 69.1222
L34.6990 69.1222
" />
</g><path style="fill:none; 
stroke:#D0D2CD; stroke-width:0.0500; stroke-opacity:1; 
stroke-linecap:round; stroke-linejoin:round;fill:none"
d="M 1.0133,0.0250
37.0133,0.0250
37.0133,76.0250
1.0133,76.0250
Z" /> 
</g>
<g style="fill:#FFFFFF; fill-opacity:1.0000; stroke:none;">
<circle cx="16.0133" cy="26.4250" r="0.1500" /> 
</g>
<g style="fill:#FFFFFF; fill-opacity:1.0000; stroke:none;">
<circle cx="14.0133" cy="28.0250" r="0.1500" /> 
</g>
<g style="fill:#FFFFFF; fill-opacity:1.0000; stroke:none;">
<circle cx="14.0133" cy="23.0250" r="0.1500" /> 
</g>
<g style="fill:#FFFFFF; fill-opacity:1.0000; stroke:none;">
<circle cx="14.0133" cy="33.0250" r="0.1500" /> 
</g>
<g style="fill:#FFFFFF; fill-opacity:1.0000; stroke:none;">
<circle cx="15.2133" cy="29.4250" r="0.1500" /> 
</g>
<g style="fill:#FFFFFF; fill-opacity:1.0000; stroke:none;">
<circle cx="23.0133" cy="50.0250" r="0.1500" /> 
</g>
<g style="fill:#FFFFFF; fill-opacity:1.0000; stroke:none;">
<circle cx="15.2133" cy="48.0250" r="0.1500" /> 
</g>
<g style="fill:#FFFFFF; fill-opacity:1.0000; stroke:none;">
<circle cx="11.8133" cy="27.2250" r="0.1500" /> 
</g>
<g style="fill:#FFFFFF; fill-opacity:1.0000; stroke:none;">
<circle cx="20.0133" cy="44.0250" r="0.1500" /> 
</g>
<g style="fill:#FFFFFF; fill-opacity:1.0000; stroke:none;">
<circle cx="18.2133" cy="50.8250" r="0.1500" /> 
</g>
<g style="fill:#FFFFFF; fill-opacity:1.0000; stroke:none;">
<circle cx="10.8133" cy="27.2250" r="0.1500" /> 
</g>
<g style="fill:#FFFFFF; fill-opacity:1.0000; stroke:none;">
<circle cx="20.0133" cy="39.0250" r="0.1500" /> 
</g>
<g style="fill:#FFFFFF; fill-opacity:1.0000; stroke:none;">
<circle cx="11.8133" cy="49.0250" r="0.1500" /> 
</g>
<g style="fill:#FFFFFF; fill-opacity:1.0000; stroke:none;">
<circle cx="14.0133" cy="49.0250" r="0.1500" /> 
</g>
<g style="fill:#FFFFFF; fill-opacity:1.0000; stroke:none;">
<circle cx="13.6133" cy="56.2250" r="0.1500" /> 
</g>
<g style="fill:#FFFFFF; fill-opacity:1.0000; stroke:none;">
<circle cx="17.6133" cy="44.8250" r="0.1500" /> 
</g>
<g style="fill:#FFFFFF; fill-opacity:1.0000; stroke:none;">
<circle cx="15.8133" cy="67.6250" r="0.1500" /> 
</g>
<g style="fill:#FFFFFF; fill-opacity:1.0000; stroke:none;">
<circle cx="7.5833" cy="10.0250" r="0.5000" /> 
</g>
<g style="fill:#FFFFFF; fill-opacity:1.0000; stroke:none;">
<circle cx="7.5833" cy="12.5650" r="0.5000" /> 
</g>
<g style="fill:#FFFFFF; fill-opacity:1.0000; stroke:none;">
<circle cx="7.5833" cy="15.1050" r="0.5000" /> 
</g>
<g style="fill:#FFFFFF; fill-opacity:1.0000; stroke:none;">
<circle cx="7.5833" cy="17.6450" r="0.5000" /> 
</g>
<g style="fill:#FFFFFF; fill-opacity:1.0000; stroke:none;">
<circle cx="7.5833" cy="20.1850" r="0.5000" /> 
</g>
<g style="fill:#FFFFFF; fill-opacity:1.0000; stroke:none;">
<circle cx="7.5833" cy="22.7250" r="0.5000" /> 
</g>
<g style="fill:#FFFFFF; fill-opacity:1.0000; stroke:none;">
<circle cx="7.5833" cy="25.2650" r="0.5000" /> 
</g>
<g style="fill:#FFFFFF; fill-opacity:1.0000; stroke:none;">
<circle cx="7.5833" cy="27.8050" r="0.5000" /> 
</g>
<g style="fill:#FFFFFF; fill-opacity:1.0000; stroke:none;">
<circle cx="7.5833" cy="30.3450" r="0.5000" /> 
</g>
<g style="fill:#FFFFFF; fill-opacity:1.0000; stroke:none;">
<circle cx="7.5833" cy="32.8850" r="0.5000" /> 
</g>
<g style="fill:#FFFFFF; fill-opacity:1.0000; stroke:none;">
<circle cx="7.5833" cy="35.4250" r="0.5000" /> 
</g>
<g style="fill:#FFFFFF; fill-opacity:1.0000; stroke:none;">
<circle cx="7.5833" cy="37.9650" r="0.5000" /> 
</g>
<g style="fill:#FFFFFF; fill-opacity:1.0000; stroke:none;">
<circle cx="7.5833" cy="40.5050" r="0.5000" /> 
</g>
<g style="fill:#FFFFFF; fill-opacity:1.0000; stroke:none;">
<circle cx="7.5833" cy="43.0450" r="0.5000" /> 
</g>
<g style="fill:#FFFFFF; fill-opacity:1.0000; stroke:none;">
<circle cx="7.5833" cy="45.5850" r="0.5000" /> 
</g>
<g style="fill:#FFFFFF; fill-opacity:1.0000; stroke:none;">
<circle cx="7.5833" cy="48.1250" r="0.5000" /> 
</g>
<g style="fill:#FFFFFF; fill-opacity:1.0000; stroke:none;">
<circle cx="7.5833" cy="50.6650" r="0.5000" /> 
</g>
<g style="fill:#FFFFFF; fill-opacity:1.0000; stroke:none;">
<circle cx="7.5833" cy="53.2050" r="0.5000" /> 
</g>
<g style="fill:#FFFFFF; fill-opacity:1.0000; stroke:none;">
<circle cx="7.5833" cy="55.7450" r="0.5000" /> 
</g>
<g style="fill:#FFFFFF; fill-opacity:1.0000; stroke:none;">
<circle cx="7.5833" cy="58.2850" r="0.5000" /> 
</g>
<g style="fill:#FFFFFF; fill-opacity:1.0000; stroke:none;">
<circle cx="7.5833" cy="60.8250" r="0.5000" /> 
</g>
<g style="fill:#FFFFFF; fill-opacity:1.0000; stroke:none;">
<circle cx="7.5833" cy="63.3650" r="0.5000" /> 
</g>
<g style="fill:#FFFFFF; fill-opacity:1.0000; stroke:none;">
<circle cx="30.4433" cy="10.0250" r="0.5000" /> 
</g>
<g style="fill:#FFFFFF; fill-opacity:1.0000; stroke:none;">
<circle cx="30.4433" cy="12.5650" r="0.5000" /> 
</g>
<g style="fill:#FFFFFF; fill-opacity:1.0000; stroke:none;">
<circle cx="30.4433" cy="15.1050" r="0.5000" /> 
</g>
<g style="fill:#FFFFFF; fill-opacity:1.0000; stroke:none;">
<circle cx="30.4433" cy="17.6450" r="0.5000" /> 
</g>
<g style="fill:#FFFFFF; fill-opacity:1.0000; stroke:none;">
<circle cx="30.4433" cy="20.1850" r="0.5000" /> 
</g>
<g style="fill:#FFFFFF; fill-opacity:1.0000; stroke:none;">
<circle cx="30.4433" cy="22.7250" r="0.5000" /> 
</g>
<g style="fill:#FFFFFF; fill-opacity:1.0000; stroke:none;">
<circle cx="30.4433" cy="25.2650" r="0.5000" /> 
</g>
<g style="fill:#FFFFFF; fill-opacity:1.0000; stroke:none;">
<circle cx="30.4433" cy="27.8050" r="0.5000" /> 
</g>
<g style="fill:#FFFFFF; fill-opacity:1.0000; stroke:none;">
<circle cx="30.4433" cy="30.3450" r="0.5000" /> 
</g>
<g style="fill:#FFFFFF; fill-opacity:1.0000; stroke:none;">
<circle cx="30.4433" cy="32.8850" r="0.5000" /> 
</g>
<g style="fill:#FFFFFF; fill-opacity:1.0000; stroke:none;">
<circle cx="30.4433" cy="35.4250" r="0.5000" /> 
</g>
<g style="fill:#FFFFFF; fill-opacity:1.0000; stroke:none;">
<circle cx="30.4433" cy="37.9650" r="0.5000" /> 
</g>
<g style="fill:#FFFFFF; fill-opacity:1.0000; stroke:none;">
<circle cx="30.4433" cy="40.5050" r="0.5000" /> 
</g>
<g style="fill:#FFFFFF; fill-opacity:1.0000; stroke:none;">
<circle cx="30.4433" cy="43.0450" r="0.5000" /> 
</g>
<g style="fill:#FFFFFF; fill-opacity:1.0000; stroke:none;">
<circle cx="30.4433" cy="45.5850" r="0.5000" /> 
</g>
<g style="fill:#FFFFFF; fill-opacity:1.0000; stroke:none;">
<circle cx="30.4433" cy="48.1250" r="0.5000" /> 
</g>
<g style="fill:#FFFFFF; fill-opacity:1.0000; stroke:none;">
<circle cx="30.4433" cy="50.6650" r="0.5000" /> 
</g>
<g style="fill:#FFFFFF; fill-opacity:1.0000; stroke:none;">
<circle cx="30.4433" cy="53.2050" r="0.5000" /> 
</g>
<g style="fill:#FFFFFF; fill-opacity:1.0000; stroke:none;">
<circle cx="30.4433" cy="55.7450" r="0.5000" /> 
</g>
<g style="fill:#FFFFFF; fill-opacity:1.0000; stroke:none;">
<circle cx="30.4433" cy="58.2850" r="0.5000" /> 
</g>
<g style="fill:#FFFFFF; fill-opacity:1.0000; stroke:none;">
<circle cx="30.4433" cy="60.8250" r="0.5000" /> 
</g>
<g style="fill:#FFFFFF; fill-opacity:1.0000; stroke:none;">
<circle cx="30.4433" cy="63.3650" r="0.5000" /> 
</g>
<g style="fill:#FFFFFF; fill-opacity:1.0000; stroke:none;">
<circle cx="13.0133" cy="58.0250" r="0.5000" /> 
</g>
<g style="fill:#FFFFFF; fill-opacity:1.0000; stroke:none;">
<circle cx="15.5533" cy="58.0250" r="0.5000" /> 
</g>
<g style="fill:#FFFFFF; fill-opacity:1.0000; stroke:none;">
<circle cx="18.0933" cy="58.0250" r="0.5000" /> 
</g>
<g style="fill:#FFFFFF; fill-opacity:1.0000; stroke:none;">
<circle cx="20.6333" cy="58.0250" r="0.5000" /> 
</g>
<g style="fill:#FFFFFF; fill-opacity:1.0000; stroke:none;">
<circle cx="12.0133" cy="65.5250" r="0.5000" /> 
</g>
<g style="fill:#FFFFFF; fill-opacity:1.0000; stroke:none;">
<circle cx="14.5533" cy="65.5250" r="0.5000" /> 
</g>
<g style="fill:#FFFFFF; fill-opacity:1.0000; stroke:none;">
<circle cx="17.0933" cy="65.5250" r="0.5000" /> 
</g>
<g style="fill:#FFFFFF; fill-opacity:1.0000; stroke:none;">
<circle cx="19.6333" cy="65.5250" r="0.5000" /> 
</g>
<g style="fill:#FFFFFF; fill-opacity:1.0000; stroke:none;">
<circle cx="24.0133" cy="55.0250" r="0.5000" /> 
</g>
<g style="fill:#FFFFFF; fill-opacity:1.0000; stroke:none;">
<circle cx="26.5533" cy="55.0250" r="0.5000" /> 
</g>
<g style="fill:#FFFFFF; fill-opacity:1.0000; stroke:none;">
<circle cx="11.0133" cy="71.0250" r="0.5000" /> 
</g>
<g style="fill:#FFFFFF; fill-opacity:1.0000; stroke:none;">
<circle cx="13.5533" cy="71.0250" r="0.5000" /> 
</g>
<g style="fill:#FFFFFF; fill-opacity:1.0000; stroke:none;">
<circle cx="16.0933" cy="71.0250" r="0.5000" /> 
</g>
<g style="fill:#FFFFFF; fill-opacity:1.0000; stroke:none;">
<circle cx="18.6333" cy="71.0250" r="0.5000" /> 
</g>
<g style="fill:#FFFFFF; fill-opacity:1.0000; stroke:none;">
<circle cx="21.1733" cy="71.0250" r="0.5000" /> 
</g>
<g style="fill:#FFFFFF; fill-opacity:1.0000; stroke:none;">
<circle cx="23.7133" cy="71.0250" r="0.5000" /> 
</g>
<g style="fill:#FFFFFF; fill-opacity:1.0000; stroke:none;">
<circle cx="4.0133" cy="3.0250" r="1.2500" /> 
</g>
<g style="fill:#FFFFFF; fill-opacity:1.0000; stroke:none;">
<circle cx="34.0133" cy="3.0250" r="1.2500" /> 
</g>
<g style="fill:#FFFFFF; fill-opacity:1.0000; stroke:none;">
<circle cx="4.0133" cy="71.0250" r="1.2500" /> 
</g>
<g style="fill:#FFFFFF; fill-opacity:1.0000; stroke:none;">
<circle cx="34.0133" cy="71.0250" r="1.2500" /> 
</g> 
</svg>
