M48
; DRILL file {KiCad 9.0.7} date 2026-09-06T02:25:47+0800
; FORMAT={-:-/ absolute / metric / decimal}
; #@! TF.CreationDate,2026-09-06T02:25:47+08:00
; #@! TF.GenerationSoftware,Kicad,Pcbnew,9.0.7
; #@! TF.FileFunction,Plated,1,2,PTH
FMAT,2
METRIC
; #@! TA.AperFunction,Plated,PTH,ViaDrill
T1C0.300
; #@! TA.AperFunction,Plated,PTH,ComponentDrill
T2C1.000
%
G90
G05
T1
X9.8Y-27.2
X10.8Y-27.2
X10.8Y-49.0
X12.6Y-56.2
X13.0Y-23.0
X13.0Y-28.0
X13.0Y-33.0
X13.0Y-49.0
X14.2Y-29.4
X14.2Y-48.0
X14.8Y-67.6
X15.0Y-26.4
X16.6Y-44.8
X17.2Y-50.8
X19.0Y-39.0
X19.0Y-44.0
X22.0Y-50.0
T2
X6.57Y-10.0
X6.57Y-12.54
X6.57Y-15.08
X6.57Y-17.62
X6.57Y-20.16
X6.57Y-22.7
X6.57Y-25.24
X6.57Y-27.78
X6.57Y-30.32
X6.57Y-32.86
X6.57Y-35.4
X6.57Y-37.94
X6.57Y-40.48
X6.57Y-43.02
X6.57Y-45.56
X6.57Y-48.1
X6.57Y-50.64
X6.57Y-53.18
X6.57Y-55.72
X6.57Y-58.26
X6.57Y-60.8
X6.57Y-63.34
X10.0Y-71.0
X11.0Y-65.5
X12.0Y-58.0
X12.54Y-71.0
X13.54Y-65.5
X14.54Y-58.0
X15.08Y-71.0
X16.08Y-65.5
X17.08Y-58.0
X17.62Y-71.0
X18.62Y-65.5
X19.62Y-58.0
X20.16Y-71.0
X22.7Y-71.0
X23.0Y-55.0
X25.54Y-55.0
X29.43Y-10.0
X29.43Y-12.54
X29.43Y-15.08
X29.43Y-17.62
X29.43Y-20.16
X29.43Y-22.7
X29.43Y-25.24
X29.43Y-27.78
X29.43Y-30.32
X29.43Y-32.86
X29.43Y-35.4
X29.43Y-37.94
X29.43Y-40.48
X29.43Y-43.02
X29.43Y-45.56
X29.43Y-48.1
X29.43Y-50.64
X29.43Y-53.18
X29.43Y-55.72
X29.43Y-58.26
X29.43Y-60.8
X29.43Y-63.34
M30
