%TF.GenerationSoftware,KiCad,Pcbnew,9.0.7*%
%TF.CreationDate,2026-09-06T02:25:47+08:00*%
%TF.ProjectId,lingban_carrier,6c696e67-6261-46e5-9f63-617272696572,rev?*%
%TF.SameCoordinates,Original*%
%TF.FileFunction,Copper,L2,Bot*%
%TF.FilePolarity,Positive*%
%FSLAX46Y46*%
G04 Gerber Fmt 4.6, Leading zero omitted, Abs format (unit mm)*
G04 Created by KiCad (PCBNEW 9.0.7) date 2026-09-06 02:25:47*
%MOMM*%
%LPD*%
G01*
G04 APERTURE LIST*
G04 Aperture macros list*
%AMRoundRect*
0 Rectangle with rounded corners*
0 $1 Rounding radius*
0 $2 $3 $4 $5 $6 $7 $8 $9 X,Y pos of 4 corners*
0 Add a 4 corners polygon primitive as box body*
4,1,4,$2,$3,$4,$5,$6,$7,$8,$9,$2,$3,0*
0 Add four circle primitives for the rounded corners*
1,1,$1+$1,$2,$3*
1,1,$1+$1,$4,$5*
1,1,$1+$1,$6,$7*
1,1,$1+$1,$8,$9*
0 Add four rect primitives between the rounded corners*
20,1,$1+$1,$2,$3,$4,$5,0*
20,1,$1+$1,$4,$5,$6,$7,0*
20,1,$1+$1,$6,$7,$8,$9,0*
20,1,$1+$1,$8,$9,$2,$3,0*%
G04 Aperture macros list end*
%TA.AperFunction,ComponentPad*%
%ADD10R,1.700000X1.700000*%
%TD*%
%TA.AperFunction,ComponentPad*%
%ADD11C,1.700000*%
%TD*%
%TA.AperFunction,SMDPad,CuDef*%
%ADD12RoundRect,0.240000X-0.360000X-0.460000X0.360000X-0.460000X0.360000X0.460000X-0.360000X0.460000X0*%
%TD*%
%TA.AperFunction,ViaPad*%
%ADD13C,0.650000*%
%TD*%
%TA.AperFunction,Conductor*%
%ADD14C,0.250000*%
%TD*%
G04 APERTURE END LIST*
D10*
%TO.P,J1,1,3V3*%
%TO.N,/3V3*%
X6570000Y-10000000D03*
D11*
%TO.P,J1,2,3V3*%
X6570000Y-12540000D03*
%TO.P,J1,3,NC*%
%TO.N,unconnected-(J1-NC-Pad3)*%
X6570000Y-15080000D03*
%TO.P,J1,4,PWM_R*%
%TO.N,/PWM_R*%
X6570000Y-17620000D03*
%TO.P,J1,5,PWM_G*%
%TO.N,/PWM_G*%
X6570000Y-20160000D03*
%TO.P,J1,6,PWM_B*%
%TO.N,/PWM_B*%
X6570000Y-22700000D03*
%TO.P,J1,7,TOUCH_IN*%
%TO.N,/TOUCH_IN*%
X6570000Y-25240000D03*
%TO.P,J1,8,NC*%
%TO.N,unconnected-(J1-NC-Pad8)*%
X6570000Y-27780000D03*
%TO.P,J1,9,NC*%
%TO.N,unconnected-(J1-NC-Pad9)*%
X6570000Y-30320000D03*
%TO.P,J1,10,NC*%
%TO.N,unconnected-(J1-NC-Pad10)*%
X6570000Y-32860000D03*
%TO.P,J1,11,NC*%
%TO.N,unconnected-(J1-NC-Pad11)*%
X6570000Y-35400000D03*
%TO.P,J1,12,SDA*%
%TO.N,/SDA*%
X6570000Y-37940000D03*
%TO.P,J1,13,NC*%
%TO.N,unconnected-(J1-NC-Pad13)*%
X6570000Y-40480000D03*
%TO.P,J1,14,NC*%
%TO.N,unconnected-(J1-NC-Pad14)*%
X6570000Y-43020000D03*
%TO.P,J1,15,SCL*%
%TO.N,/SCL*%
X6570000Y-45560000D03*
%TO.P,J1,16,PRIVACY_N*%
%TO.N,/PRIVACY_N*%
X6570000Y-48100000D03*
%TO.P,J1,17,NC*%
%TO.N,unconnected-(J1-NC-Pad17)*%
X6570000Y-50640000D03*
%TO.P,J1,18,NC*%
%TO.N,unconnected-(J1-NC-Pad18)*%
X6570000Y-53180000D03*
%TO.P,J1,19,NC*%
%TO.N,unconnected-(J1-NC-Pad19)*%
X6570000Y-55720000D03*
%TO.P,J1,20,NC*%
%TO.N,unconnected-(J1-NC-Pad20)*%
X6570000Y-58260000D03*
%TO.P,J1,21,NC*%
%TO.N,unconnected-(J1-NC-Pad21)*%
X6570000Y-60800000D03*
%TO.P,J1,22,GND*%
%TO.N,/GND*%
X6570000Y-63340000D03*
%TD*%
D10*
%TO.P,J3,1,GND*%
%TO.N,/GND*%
X29430000Y-10000000D03*
D11*
%TO.P,J3,2,NC*%
%TO.N,unconnected-(J3-NC-Pad2)*%
X29430000Y-12540000D03*
%TO.P,J3,3,NC*%
%TO.N,unconnected-(J3-NC-Pad3)*%
X29430000Y-15080000D03*
%TO.P,J3,4,NC*%
%TO.N,unconnected-(J3-NC-Pad4)*%
X29430000Y-17620000D03*
%TO.P,J3,5,NC*%
%TO.N,unconnected-(J3-NC-Pad5)*%
X29430000Y-20160000D03*
%TO.P,J3,6,NC*%
%TO.N,unconnected-(J3-NC-Pad6)*%
X29430000Y-22700000D03*
%TO.P,J3,7,NC*%
%TO.N,unconnected-(J3-NC-Pad7)*%
X29430000Y-25240000D03*
%TO.P,J3,8,NC*%
%TO.N,unconnected-(J3-NC-Pad8)*%
X29430000Y-27780000D03*
%TO.P,J3,9,NC*%
%TO.N,unconnected-(J3-NC-Pad9)*%
X29430000Y-30320000D03*
%TO.P,J3,10,NC*%
%TO.N,unconnected-(J3-NC-Pad10)*%
X29430000Y-32860000D03*
%TO.P,J3,11,NC*%
%TO.N,unconnected-(J3-NC-Pad11)*%
X29430000Y-35400000D03*
%TO.P,J3,12,NC*%
%TO.N,unconnected-(J3-NC-Pad12)*%
X29430000Y-37940000D03*
%TO.P,J3,13,NC*%
%TO.N,unconnected-(J3-NC-Pad13)*%
X29430000Y-40480000D03*
%TO.P,J3,14,NC*%
%TO.N,unconnected-(J3-NC-Pad14)*%
X29430000Y-43020000D03*
%TO.P,J3,15,NC*%
%TO.N,unconnected-(J3-NC-Pad15)*%
X29430000Y-45560000D03*
%TO.P,J3,16,NC*%
%TO.N,unconnected-(J3-NC-Pad16)*%
X29430000Y-48100000D03*
%TO.P,J3,17,NC*%
%TO.N,unconnected-(J3-NC-Pad17)*%
X29430000Y-50640000D03*
%TO.P,J3,18,NC*%
%TO.N,unconnected-(J3-NC-Pad18)*%
X29430000Y-53180000D03*
%TO.P,J3,19,NC*%
%TO.N,unconnected-(J3-NC-Pad19)*%
X29430000Y-55720000D03*
%TO.P,J3,20,NC*%
%TO.N,unconnected-(J3-NC-Pad20)*%
X29430000Y-58260000D03*
%TO.P,J3,21,GND*%
%TO.N,/GND*%
X29430000Y-60800000D03*
%TO.P,J3,22,GND*%
X29430000Y-63340000D03*
%TD*%
D12*
%TO.P,R1,1,PWM_R*%
%TO.N,/PWM_R*%
X13000000Y-18000000D03*
%TO.P,R1,2,LED_R*%
%TO.N,/LED_R*%
X15000000Y-18000000D03*
%TD*%
%TO.P,R2,1,PWM_G*%
%TO.N,/PWM_G*%
X13000000Y-23000000D03*
%TO.P,R2,2,LED_G*%
%TO.N,/LED_G*%
X15000000Y-23000000D03*
%TD*%
%TO.P,R3,1,PWM_B*%
%TO.N,/PWM_B*%
X13000000Y-28000000D03*
%TO.P,R3,2,LED_B*%
%TO.N,/LED_B*%
X15000000Y-28000000D03*
%TD*%
%TO.P,R4,1,TOUCH_IN*%
%TO.N,/TOUCH_IN*%
X13000000Y-33000000D03*
%TO.P,R4,2,ELECTRODE*%
%TO.N,/ELECTRODE*%
X15000000Y-33000000D03*
%TD*%
%TO.P,R5,1,SW3V3*%
%TO.N,/SW3V3*%
X17000000Y-39000000D03*
%TO.P,R5,2,SDA*%
%TO.N,/SDA*%
X19000000Y-39000000D03*
%TD*%
%TO.P,R6,1,SW3V3*%
%TO.N,/SW3V3*%
X17000000Y-44000000D03*
%TO.P,R6,2,SCL*%
%TO.N,/SCL*%
X19000000Y-44000000D03*
%TD*%
%TO.P,R7,1,3V3*%
%TO.N,/3V3*%
X13000000Y-49000000D03*
%TO.P,R7,2,PRIVACY_N*%
%TO.N,/PRIVACY_N*%
X15000000Y-49000000D03*
%TD*%
%TO.P,C1,1,3V3*%
%TO.N,/3V3*%
X22000000Y-18000000D03*
%TO.P,C1,2,GND*%
%TO.N,/GND*%
X24000000Y-18000000D03*
%TD*%
%TO.P,C2,1,SW3V3*%
%TO.N,/SW3V3*%
X22000000Y-24000000D03*
%TO.P,C2,2,GND*%
%TO.N,/GND*%
X24000000Y-24000000D03*
%TD*%
%TO.P,C3,1,SW3V3*%
%TO.N,/SW3V3*%
X22000000Y-30000000D03*
%TO.P,C3,2,GND*%
%TO.N,/GND*%
X24000000Y-30000000D03*
%TD*%
%TO.P,D1,1,ELECTRODE*%
%TO.N,/ELECTRODE*%
X22000000Y-50000000D03*
%TO.P,D1,2,GND*%
%TO.N,/GND*%
X24000000Y-50000000D03*
%TD*%
D10*
%TO.P,J4,1,GND*%
%TO.N,/GND*%
X12000000Y-58000000D03*
D11*
%TO.P,J4,2,SW3V3*%
%TO.N,/SW3V3*%
X14540000Y-58000000D03*
%TO.P,J4,3,SCL*%
%TO.N,/SCL*%
X17080000Y-58000000D03*
%TO.P,J4,4,SDA*%
%TO.N,/SDA*%
X19620000Y-58000000D03*
%TD*%
D10*
%TO.P,J5,1,SW3V3*%
%TO.N,/SW3V3*%
X11000000Y-65500000D03*
D11*
%TO.P,J5,2,LED_R*%
%TO.N,/LED_R*%
X13540000Y-65500000D03*
%TO.P,J5,3,LED_G*%
%TO.N,/LED_G*%
X16080000Y-65500000D03*
%TO.P,J5,4,LED_B*%
%TO.N,/LED_B*%
X18620000Y-65500000D03*
%TD*%
D10*
%TO.P,J6,1,ELECTRODE*%
%TO.N,/ELECTRODE*%
X23000000Y-55000000D03*
D11*
%TO.P,J6,2,GND*%
%TO.N,/GND*%
X25540000Y-55000000D03*
%TD*%
D10*
%TO.P,J7,1,SW3V3*%
%TO.N,/SW3V3*%
X10000000Y-71000000D03*
D11*
%TO.P,J7,2,3V3*%
%TO.N,/3V3*%
X12540000Y-71000000D03*
%TO.P,J7,3,NC*%
%TO.N,unconnected-(J7-NC-Pad3)*%
X15080000Y-71000000D03*
%TO.P,J7,4,PRIVACY_N*%
%TO.N,/PRIVACY_N*%
X17620000Y-71000000D03*
%TO.P,J7,5,GND*%
%TO.N,/GND*%
X20160000Y-71000000D03*
%TO.P,J7,6,NC*%
%TO.N,unconnected-(J7-NC-Pad6)*%
X22700000Y-71000000D03*
%TD*%
D13*
%TO.N,/LED_G*%
X15000000Y-26400000D03*
%TO.N,/PWM_B*%
X13000000Y-28000000D03*
%TO.N,/PWM_G*%
X13000000Y-23000000D03*
%TO.N,/TOUCH_IN*%
X13000000Y-33000000D03*
%TO.N,/ELECTRODE*%
X14200000Y-29400000D03*
X22000000Y-50000000D03*
%TO.N,/PRIVACY_N*%
X14200000Y-48000000D03*
%TO.N,/SCL*%
X10800000Y-27200000D03*
X19000000Y-44000000D03*
X17200000Y-50800000D03*
%TO.N,/SDA*%
X9800000Y-27200000D03*
X19000000Y-39000000D03*
%TO.N,/3V3*%
X10800000Y-49000000D03*
X13000000Y-49000000D03*
X12600000Y-56200000D03*
%TO.N,/SW3V3*%
X16600000Y-44800000D03*
%TO.N,/GND*%
X14800000Y-67600000D03*
%TD*%
D14*
%TO.N,/LED_B*%
X15000000Y-28000000D02*
X15000000Y-31600000D01*
X15000000Y-31600000D02*
X15400000Y-31600000D01*
X15400000Y-31600000D02*
X15400000Y-31800000D01*
X15400000Y-31800000D02*
X15800000Y-31800000D01*
X15800000Y-31800000D02*
X15800000Y-32000000D01*
X15800000Y-32000000D02*
X16000000Y-32000000D01*
X16000000Y-32000000D02*
X16000000Y-32200000D01*
X16000000Y-32200000D02*
X16200000Y-32200000D01*
X16200000Y-32200000D02*
X16200000Y-32600000D01*
X16200000Y-32600000D02*
X16400000Y-32600000D01*
X16400000Y-32600000D02*
X16400000Y-37800000D01*
X16400000Y-37800000D02*
X16200000Y-37800000D01*
X16200000Y-37800000D02*
X16200000Y-38000000D01*
X16200000Y-38000000D02*
X16000000Y-38000000D01*
X16000000Y-38000000D02*
X16000000Y-38200000D01*
X16000000Y-38200000D02*
X15800000Y-38200000D01*
X15800000Y-38200000D02*
X15800000Y-38600000D01*
X15800000Y-38600000D02*
X15600000Y-38600000D01*
X15600000Y-38600000D02*
X15600000Y-47800000D01*
X15600000Y-47800000D02*
X15800000Y-47800000D01*
X15800000Y-47800000D02*
X15800000Y-48000000D01*
X15800000Y-48000000D02*
X16000000Y-48000000D01*
X16000000Y-48000000D02*
X16000000Y-48200000D01*
X16000000Y-48200000D02*
X16200000Y-48200000D01*
X16200000Y-48200000D02*
X16200000Y-48600000D01*
X16200000Y-48600000D02*
X16400000Y-48600000D01*
X16400000Y-48600000D02*
X16400000Y-56800000D01*
X16400000Y-56800000D02*
X17800000Y-56800000D01*
X17800000Y-56800000D02*
X17800000Y-57000000D01*
X17800000Y-57000000D02*
X18000000Y-57000000D01*
X18000000Y-57000000D02*
X18000000Y-57200000D01*
X18000000Y-57200000D02*
X18200000Y-57200000D01*
X18200000Y-57200000D02*
X18200000Y-57400000D01*
X18200000Y-57400000D02*
X18400000Y-57400000D01*
X18400000Y-57400000D02*
X18400000Y-65600000D01*
X18400000Y-65600000D02*
X18600000Y-65600000D01*
X18600000Y-65600000D02*
X18620000Y-65500000D01*
%TO.N,/LED_G*%
X15000000Y-23000000D02*
X15000000Y-26400000D01*
%TO.N,/LED_R*%
X15000000Y-18000000D02*
X14400000Y-18000000D01*
X14400000Y-18000000D02*
X14400000Y-18400000D01*
X14400000Y-18400000D02*
X14200000Y-18400000D01*
X14200000Y-18400000D02*
X14200000Y-18800000D01*
X14200000Y-18800000D02*
X14000000Y-18800000D01*
X14000000Y-18800000D02*
X14000000Y-19000000D01*
X14000000Y-19000000D02*
X13800000Y-19000000D01*
X13800000Y-19000000D02*
X13800000Y-19200000D01*
X13800000Y-19200000D02*
X13600000Y-19200000D01*
X13600000Y-19200000D02*
X13600000Y-21600000D01*
X13600000Y-21600000D02*
X12600000Y-21600000D01*
X12600000Y-21600000D02*
X12600000Y-21800000D01*
X12600000Y-21800000D02*
X12200000Y-21800000D01*
X12200000Y-21800000D02*
X12200000Y-22000000D01*
X12200000Y-22000000D02*
X12000000Y-22000000D01*
X12000000Y-22000000D02*
X12000000Y-22200000D01*
X12000000Y-22200000D02*
X11800000Y-22200000D01*
X11800000Y-22200000D02*
X11800000Y-22600000D01*
X11800000Y-22600000D02*
X11600000Y-22600000D01*
X11600000Y-22600000D02*
X11600000Y-56400000D01*
X11600000Y-56400000D02*
X11200000Y-56400000D01*
X11200000Y-56400000D02*
X11200000Y-56600000D01*
X11200000Y-56600000D02*
X11000000Y-56600000D01*
X11000000Y-56600000D02*
X11000000Y-56800000D01*
X11000000Y-56800000D02*
X10800000Y-56800000D01*
X10800000Y-56800000D02*
X10800000Y-57000000D01*
X10800000Y-57000000D02*
X10600000Y-57000000D01*
X10600000Y-57000000D02*
X10600000Y-57200000D01*
X10600000Y-57200000D02*
X10400000Y-57200000D01*
X10400000Y-57200000D02*
X10400000Y-63800000D01*
X10400000Y-63800000D02*
X11400000Y-63800000D01*
X11400000Y-63800000D02*
X11400000Y-64000000D01*
X11400000Y-64000000D02*
X12000000Y-64000000D01*
X12000000Y-64000000D02*
X12000000Y-64200000D01*
X12000000Y-64200000D02*
X12200000Y-64200000D01*
X12200000Y-64200000D02*
X12200000Y-64400000D01*
X12200000Y-64400000D02*
X12400000Y-64400000D01*
X12400000Y-64400000D02*
X12400000Y-64800000D01*
X12400000Y-64800000D02*
X12600000Y-64800000D01*
X12600000Y-64800000D02*
X12600000Y-65600000D01*
X12600000Y-65600000D02*
X13600000Y-65600000D01*
X13600000Y-65600000D02*
X13540000Y-65500000D01*
%TO.N,/PWM_R*%
X6570000Y-17620000D02*
X6600000Y-17600000D01*
X6600000Y-17600000D02*
X6600000Y-18000000D01*
X6600000Y-18000000D02*
X13000000Y-18000000D01*
%TO.N,/ELECTRODE*%
X15000000Y-33000000D02*
X14400000Y-33000000D01*
X14400000Y-33000000D02*
X14400000Y-32600000D01*
X14400000Y-32600000D02*
X14200000Y-32600000D01*
X14200000Y-32600000D02*
X14200000Y-29400000D01*
X22000000Y-50000000D02*
X22000000Y-55000000D01*
X22000000Y-55000000D02*
X23000000Y-55000000D01*
%TO.N,/PRIVACY_N*%
X14200000Y-48000000D02*
X14200000Y-48600000D01*
X14200000Y-48600000D02*
X14400000Y-48600000D01*
X14400000Y-48600000D02*
X14400000Y-49000000D01*
X14400000Y-49000000D02*
X15000000Y-49000000D01*
X15000000Y-49000000D02*
X15000000Y-56800000D01*
X15000000Y-56800000D02*
X15200000Y-56800000D01*
X15200000Y-56800000D02*
X15200000Y-57000000D01*
X15200000Y-57000000D02*
X15600000Y-57000000D01*
X15600000Y-57000000D02*
X15600000Y-57400000D01*
X15600000Y-57400000D02*
X15800000Y-57400000D01*
X15800000Y-57400000D02*
X15800000Y-64200000D01*
X15800000Y-64200000D02*
X16600000Y-64200000D01*
X16600000Y-64200000D02*
X16600000Y-64400000D01*
X16600000Y-64400000D02*
X17000000Y-64400000D01*
X17000000Y-64400000D02*
X17000000Y-64600000D01*
X17000000Y-64600000D02*
X17200000Y-64600000D01*
X17200000Y-64600000D02*
X17200000Y-65000000D01*
X17200000Y-65000000D02*
X17400000Y-65000000D01*
X17400000Y-65000000D02*
X17400000Y-71000000D01*
X17400000Y-71000000D02*
X17600000Y-71000000D01*
X17600000Y-71000000D02*
X17620000Y-71000000D01*
%TO.N,/SCL*%
X6570000Y-45560000D02*
X6600000Y-45600000D01*
X6600000Y-45600000D02*
X6600000Y-44400000D01*
X6600000Y-44400000D02*
X6800000Y-44400000D01*
X6800000Y-44400000D02*
X6800000Y-44200000D01*
X6800000Y-44200000D02*
X7400000Y-44200000D01*
X7400000Y-44200000D02*
X7400000Y-44000000D01*
X7400000Y-44000000D02*
X10800000Y-44000000D01*
X10800000Y-44000000D02*
X10800000Y-27200000D01*
X19000000Y-44000000D02*
X18400000Y-44000000D01*
X18400000Y-44000000D02*
X18400000Y-44400000D01*
X18400000Y-44400000D02*
X18200000Y-44400000D01*
X18200000Y-44400000D02*
X18200000Y-44800000D01*
X18200000Y-44800000D02*
X18000000Y-44800000D01*
X18000000Y-44800000D02*
X18000000Y-45000000D01*
X18000000Y-45000000D02*
X17800000Y-45000000D01*
X17800000Y-45000000D02*
X17800000Y-45200000D01*
X17800000Y-45200000D02*
X17400000Y-45200000D01*
X17400000Y-45200000D02*
X17400000Y-45400000D01*
X17400000Y-45400000D02*
X17200000Y-45400000D01*
X17200000Y-45400000D02*
X17200000Y-50800000D01*
%TO.N,/SDA*%
X6570000Y-37940000D02*
X6600000Y-38000000D01*
X6600000Y-38000000D02*
X9800000Y-38000000D01*
X9800000Y-38000000D02*
X9800000Y-27200000D01*
X19000000Y-39000000D02*
X19000000Y-42600000D01*
X19000000Y-42600000D02*
X19400000Y-42600000D01*
X19400000Y-42600000D02*
X19400000Y-42800000D01*
X19400000Y-42800000D02*
X19800000Y-42800000D01*
X19800000Y-42800000D02*
X19800000Y-43000000D01*
X19800000Y-43000000D02*
X20000000Y-43000000D01*
X20000000Y-43000000D02*
X20000000Y-43200000D01*
X20000000Y-43200000D02*
X20200000Y-43200000D01*
X20200000Y-43200000D02*
X20200000Y-43600000D01*
X20200000Y-43600000D02*
X20400000Y-43600000D01*
X20400000Y-43600000D02*
X20400000Y-44400000D01*
X20400000Y-44400000D02*
X20200000Y-44400000D01*
X20200000Y-44400000D02*
X20200000Y-44800000D01*
X20200000Y-44800000D02*
X20000000Y-44800000D01*
X20000000Y-44800000D02*
X20000000Y-45000000D01*
X20000000Y-45000000D02*
X19800000Y-45000000D01*
X19800000Y-45000000D02*
X19800000Y-45200000D01*
X19800000Y-45200000D02*
X19600000Y-45200000D01*
X19600000Y-45200000D02*
X19600000Y-58000000D01*
X19600000Y-58000000D02*
X19620000Y-58000000D01*
%TO.N,/3V3*%
X6570000Y-12540000D02*
X6600000Y-12600000D01*
X6600000Y-12600000D02*
X6600000Y-13800000D01*
X6600000Y-13800000D02*
X7200000Y-13800000D01*
X7200000Y-13800000D02*
X7200000Y-14000000D01*
X7200000Y-14000000D02*
X7400000Y-14000000D01*
X7400000Y-14000000D02*
X7400000Y-14200000D01*
X7400000Y-14200000D02*
X7600000Y-14200000D01*
X7600000Y-14200000D02*
X7600000Y-14400000D01*
X7600000Y-14400000D02*
X7800000Y-14400000D01*
X7800000Y-14400000D02*
X7800000Y-16600000D01*
X7800000Y-16600000D02*
X15400000Y-16600000D01*
X15400000Y-16600000D02*
X15400000Y-16800000D01*
X15400000Y-16800000D02*
X15800000Y-16800000D01*
X15800000Y-16800000D02*
X15800000Y-17000000D01*
X15800000Y-17000000D02*
X16000000Y-17000000D01*
X16000000Y-17000000D02*
X16000000Y-17200000D01*
X16000000Y-17200000D02*
X16200000Y-17200000D01*
X16200000Y-17200000D02*
X16200000Y-17600000D01*
X16200000Y-17600000D02*
X16400000Y-17600000D01*
X16400000Y-17600000D02*
X16400000Y-18000000D01*
X16400000Y-18000000D02*
X22000000Y-18000000D01*
X22000000Y-18000000D02*
X16400000Y-18000000D01*
X16400000Y-18000000D02*
X16400000Y-17600000D01*
X16400000Y-17600000D02*
X16200000Y-17600000D01*
X16200000Y-17600000D02*
X16200000Y-17200000D01*
X16200000Y-17200000D02*
X16000000Y-17200000D01*
X16000000Y-17200000D02*
X16000000Y-17000000D01*
X16000000Y-17000000D02*
X15800000Y-17000000D01*
X15800000Y-17000000D02*
X15800000Y-16800000D01*
X15800000Y-16800000D02*
X15400000Y-16800000D01*
X15400000Y-16800000D02*
X15400000Y-16600000D01*
X15400000Y-16600000D02*
X7200000Y-16600000D01*
X7200000Y-16600000D02*
X7200000Y-16400000D01*
X7200000Y-16400000D02*
X5800000Y-16400000D01*
X5800000Y-16400000D02*
X5800000Y-16600000D01*
X5800000Y-16600000D02*
X5600000Y-16600000D01*
X5600000Y-16600000D02*
X5600000Y-16800000D01*
X5600000Y-16800000D02*
X5400000Y-16800000D01*
X5400000Y-16800000D02*
X5400000Y-17200000D01*
X5400000Y-17200000D02*
X5200000Y-17200000D01*
X5200000Y-17200000D02*
X5200000Y-46800000D01*
X5200000Y-46800000D02*
X7200000Y-46800000D01*
X7200000Y-46800000D02*
X7200000Y-47000000D01*
X7200000Y-47000000D02*
X7400000Y-47000000D01*
X7400000Y-47000000D02*
X7400000Y-47200000D01*
X7400000Y-47200000D02*
X7600000Y-47200000D01*
X7600000Y-47200000D02*
X7600000Y-47400000D01*
X7600000Y-47400000D02*
X7800000Y-47400000D01*
X7800000Y-47400000D02*
X7800000Y-49000000D01*
X7800000Y-49000000D02*
X10800000Y-49000000D01*
X13000000Y-49000000D02*
X12600000Y-49000000D01*
X12600000Y-49000000D02*
X12600000Y-56200000D01*
%TO.N,/SW3V3*%
X17000000Y-39000000D02*
X17000000Y-44000000D01*
X17000000Y-39000000D02*
X17000000Y-30000000D01*
X17000000Y-30000000D02*
X22000000Y-30000000D01*
X22000000Y-30000000D02*
X22000000Y-24000000D01*
X17000000Y-44000000D02*
X16600000Y-44000000D01*
X16600000Y-44000000D02*
X16600000Y-44800000D01*
X11000000Y-65500000D02*
X11000000Y-65600000D01*
X11000000Y-65600000D02*
X10000000Y-65600000D01*
X10000000Y-65600000D02*
X10000000Y-71000000D01*
%TO.N,/GND*%
X12000000Y-58000000D02*
X13200000Y-58000000D01*
X13200000Y-58000000D02*
X13200000Y-58400000D01*
X13200000Y-58400000D02*
X13400000Y-58400000D01*
X13400000Y-58400000D02*
X13400000Y-58800000D01*
X13400000Y-58800000D02*
X13600000Y-58800000D01*
X13600000Y-58800000D02*
X13600000Y-59000000D01*
X13600000Y-59000000D02*
X13800000Y-59000000D01*
X13800000Y-59000000D02*
X13800000Y-59200000D01*
X13800000Y-59200000D02*
X14800000Y-59200000D01*
X14800000Y-59200000D02*
X14800000Y-67600000D01*
X25540000Y-55000000D02*
X25600000Y-55000000D01*
X25600000Y-55000000D02*
X24600000Y-55000000D01*
X24600000Y-55000000D02*
X24600000Y-54200000D01*
X24600000Y-54200000D02*
X24400000Y-54200000D01*
X24400000Y-54200000D02*
X24400000Y-54000000D01*
X24400000Y-54000000D02*
X24200000Y-54000000D01*
X24200000Y-54000000D02*
X24200000Y-53800000D01*
X24200000Y-53800000D02*
X24000000Y-53800000D01*
X24000000Y-53800000D02*
X24000000Y-50000000D01*
X24000000Y-50000000D02*
X24000000Y-30000000D01*
X24000000Y-30000000D02*
X24000000Y-24000000D01*
X24000000Y-24000000D02*
X24000000Y-18000000D01*
X24000000Y-18000000D02*
X24000000Y-10000000D01*
X24000000Y-10000000D02*
X29400000Y-10000000D01*
X29400000Y-10000000D02*
X29430000Y-10000000D01*
%TD*%
M02*
